<?xml version="1.0" encoding="UTF-8"?>
<svg id="Layer_1" xmlns="http://www.w3.org/2000/svg" version="1.1" viewBox="0 0 35.4 35.3">
  <!-- Generator: Adobe Illustrator 29.3.1, SVG Export Plug-In . SVG Version: 2.1.0 Build 151)  -->
  <defs>
    <style>
      .st0 {
        fill: #9daf92;
      }
    </style>
  </defs>
  <path class="st0" d="M4.4,26.5c.2-.1.4,0,.5,0,0,0,0,0,0,0,.1.2,0,.4-.2.6-.2,0-.4,0-.5,0-.1-.2,0-.4.1-.5,0,0,0,0,0,0Z"/>
  <path class="st0" d="M1.2,23.9c.2,0,.3-.1.4-.2,0,0,0,0,0,0-.2.2-.3.5-.2.7.1.3.6.5,1.2.3.6-.3.8-.7.6-1.1-.1-.3-.4-.4-.7-.4,0,0,0,0,0-.1.2,0,.3,0,.5,0,.1.2.3.3.4.5.1.3.2.6.1.9,0,.3-.3.6-.6.7-.3.1-.6.1-.9,0-.3-.1-.5-.4-.6-.7,0-.2-.1-.4-.2-.6Z"/>
  <path class="st0" d="M1.5,21.9c0,0,0,0,0-.1v-.2c0-.2-.1-.2-.3-.2h0s0,0,0-.1c.1,0,.2,0,.3,0,.1,0,.2,0,.3,0,0,0,0,0,0,.1h0c-.1.1-.2.1-.1.3v.2c0,0,0,0,.2,0h.4c.1-.1.2-.2.3-.2,0,0,0-.1,0-.3,0-.3-.1-.4-.5-.4,0,0,0,0,0-.1,0,0,0,0,0,0,.2,0,.4,0,.5,0,0,.2.1.5.2.7v.4c.1.1.2.3.2.5,0,0,0,0-.1,0h0c0-.3,0-.3-.4-.2l-1.2.3c-.3,0-.3,0-.3.2h0c0,.1,0,.1-.1.1,0-.1,0-.3-.1-.4l-.2-.6c0-.2,0-.4-.1-.4,0,0,.3,0,.5-.2,0,0,0,0,0,.1,0,0-.2.1-.2.2,0,0,0,.2,0,.3v.2c0,0,0,0,.2,0h.5Z"/>
  <path class="st0" d="M1.6,18.1c.2,0,.4,0,.5,0,0,0,0,.1,0,.2,0,0-.2.1-.3.3l-.9.8c-.1.1-.3.2-.4.4,0,0,.1,0,.2,0h.6c.2,0,.4,0,.6-.1,0,0,0-.1,0-.2h0c0-.1,0-.1.1,0,0,.2,0,.3,0,.4,0,.1,0,.2,0,.3,0,0,0,0-.1,0h0c0-.1,0-.2-.1-.2-.2,0-.4,0-.6,0h-.8c0,0-.2,0-.3.1,0,0-.1.1,0,.2h0c0,.1-.1.1-.1,0,0-.1,0-.3,0-.4,0-.1,0-.2,0-.3.3-.2.5-.3.7-.6l.3-.3c.2-.1.3-.2.3-.3,0,0,0,0-.1,0h-.4c-.2,0-.4,0-.6.1,0,0,0,.1,0,.2h0c0,.1,0,.1-.1,0,0-.2,0-.3,0-.4,0-.1,0-.2,0-.3,0,0,0,0,.1,0h0c0,.1,0,.2.1.2.2,0,.4,0,.6,0h.8Z"/>
  <path class="st0" d="M.4,16.2c0,0,0,0-.1,0v.2c0,.2,0,.3.3.4,0,0,0,0,0,.1-.2,0-.4-.1-.5-.2,0,0,0,0,0,0,0,0,0,0,0,0,0,0,0,0,0-.3v-1.1c.1-.2.1-.3,0-.3,0,0,0,0,0,0,0,0,0,0,0,0,.2,0,.4,0,.5,0,0,0,0,.1,0,.1-.2,0-.4,0-.4.3v.2c0,0,0,0,0,0h1.4c.3.2.3.1.4,0h0c0-.1,0-.1.1-.1,0,.2,0,.4,0,.5,0,.1,0,.3,0,.5,0,0,0,0-.1,0h0c0-.3,0-.3-.3-.3H.4Z"/>
  <path class="st0" d="M1,13.9c-.3,0-.3,0-.4,0h0c0,0,0,0-.1,0,0,0,0,0,0,0,0-.2,0-.5.2-.8,0-.2.1-.4.3-.6.1-.1.3-.2.5-.1.2,0,.4.2.4.4,0,0,0,0,0,0,.3,0,.6-.1.9-.3,0,0,.1-.1.1-.2,0,0,0,0,0,0,0,0,0,.2,0,.2,0,.2-.2.4-.5.5-.2,0-.4,0-.5.1,0,0-.1,0-.2.1,0,.1,0,.1,0,.1h.4c.3.2.3.2.4,0h0c0,0,0,0,.1,0,0,.2,0,.3-.1.4,0,.2,0,.3-.1.4,0,0,0,0-.1,0h0c0-.2,0-.3-.3-.3l-1.1-.3ZM1.5,13.6c.1,0,.1,0,.2-.2,0,0,0-.2,0-.3,0-.1-.2-.2-.3-.2-.2,0-.5,0-.6.2,0,0,0,0,0,0,0,.1,0,.1.1.2l.6.2Z"/>
  <path class="st0" d="M2.8,11.3c0,0,0,0,0,.1l.3.3s0,0,0,0c0,0,0,0,.1,0h0c0,0,0,0,.1,0,0,0,0,.2-.2.3,0,0,0,.2-.1.3,0,0,0,0-.1,0h0c0-.2,0-.3,0-.3,0-.1-.2-.2-.4-.4l-.6-.6c-.2-.1-.2-.2-.3-.3,0-.1,0-.2,0-.3,0,0,0,0,0,0,0,0,.2,0,.5,0h1.3c.2.2.3.2.3,0h0c0-.1,0,0,.1,0,0,.1-.1.3-.2.4,0,.1-.1.3-.2.4,0,0,0,0-.1,0,0,0,0,0,0,0h0c0-.2,0-.2,0-.2,0,0-.1,0-.2,0h-.3c0,0,0,0-.1,0l-.2.3ZM2.8,10.9c0,0,0,0,0,0h-.3c-.1,0-.3,0-.4,0,0,0,.2.2.3.3l.2.2c0,0,0,0,.1,0v-.3Z"/>
  <path class="st0" d="M4.3,8.9c0,0,.2.1.3.1,0,0,.1,0,.2-.2.2-.2.2-.3,0-.7,0,0,0,0,0,0,.1.1.3.3.4.4,0,.1-.3.4-.4.6l-.2.3c0,.1-.2.3-.3.4,0,0,0,0,0,0h0c0-.2,0-.3-.2-.4l-1-.7c-.3-.2-.3-.2-.4,0h0c0,0,0,0,0,0,0,0,0,0,0,0,0-.1.2-.3.3-.4,0-.1.2-.3.2-.4,0,0,0,0,0,0h0c0,.2,0,.2.2.4l.9.6Z"/>
  <path class="st0" d="M6.5,4c.1.1.2.2.4.3,0,0,0,.1,0,0-.2-.2-.5-.1-.7,0-.3.2-.3.7.1,1.2.4.5.9.5,1.2.2.2-.2.3-.5.1-.8,0,0,0,0,.1,0,.1.1.2.3.3.5-.1.2-.2.4-.4.5-.2.2-.5.3-.8.4-.3,0-.6-.1-.9-.4-.2-.2-.3-.6-.3-.9,0-.3.2-.6.4-.8.2-.1.3-.3.5-.4Z"/>
  <path class="st0" d="M8.6,4.2c0,0,0,0,0,.1v.4c.1,0,.1,0,.1.1,0,0,0,0,.1,0h0s0,0,0,0c0,0-.2.1-.3.2,0,0-.1.1-.3.2,0,0,0,0,0,0h0c0-.1.1-.2,0-.3,0-.1,0-.3-.1-.5l-.2-.8c0-.1,0-.3-.1-.4,0,0,.1-.2.1-.3,0,0,0,0,0,0,0,0,.2.1.4.3l1,.8c.2.1.2.2.3.1h.1s0,0,0,0c-.1,0-.3.2-.4.3-.1,0-.2.2-.3.2,0,0,0,0,0,0,0,0,0,0,0,0h0c0-.1,0-.1,0-.2,0,0-.1-.1-.2-.2l-.2-.2s0,0-.2,0l-.3.2ZM8.9,3.9c0,0,0,0,0-.1l-.2-.2c-.1,0-.3-.2-.3-.3,0,0,0,.3.1.4v.2c0,0,.1,0,.2,0l.2-.2Z"/>
  <path class="st0" d="M11.1,3c0,.1,0,.2.2.3,0,0,.1,0,.3,0,.3-.1.3-.2.4-.6,0,0,0,0,.1,0,0,.2,0,.4,0,.5-.2,0-.4.2-.7.3l-.4.2c-.1,0-.3.1-.4.2,0,0,0,0,0,0h.1c.1-.1.1-.2,0-.4l-.5-1.1c-.1-.3-.1-.3-.3-.3h0s0,0,0,0c0,0,0,0,0,0,.2,0,.3-.1.4-.2.1,0,.3-.1.4-.2,0,0,0,0,0,.1h0c-.1.1-.1.2,0,.4l.5,1Z"/>
  <path class="st0" d="M13.5,2.3c0,.3.1.3.3.3h0s0,0,0,.1c-.2,0-.3,0-.4.1-.1,0-.3,0-.5.1,0,0,0,0,0-.1h0c.1-.1.1-.1,0-.4l-.3-1.1c0-.3-.1-.3-.3-.3h0s0,0,0,0c.2,0,.3,0,.5-.1.1,0,.3,0,.4-.1,0,0,0,0,0,.1h0c-.1.1-.1.1,0,.4l.3,1.1Z"/>
  <path class="st0" d="M15.1,1.1c0,0,0,0,.1,0h.2c.2,0,.2,0,.2-.3h0c0-.1,0-.1.1,0,0,.1,0,.2,0,.3,0,.1,0,.2,0,.3,0,0,0,0-.1,0h0c0-.2,0-.2-.3-.2h-.2c0,0,0,0,0,.1v.4c.1.3.1.3.3.3h.1s0,0,0,.1c-.2,0-.3,0-.5,0-.1,0-.3,0-.5,0,0,0,0,0,0-.1h0c.1,0,.1-.1.1-.4l-.2-1.2c0-.3,0-.3-.2-.3h0s0,0,0-.1c.1,0,.3,0,.4,0h.6c.2-.1.4-.2.4-.2,0,0,0,.3,0,.5,0,0,0,0-.1,0,0,0,0-.2-.1-.2,0,0-.2,0-.3,0h-.2c-.1,0-.1,0,0,.2v.6Z"/>
  <path class="st0" d="M19.1,1.1c0,.6-.4,1.1-1,1.1,0,0-.1,0-.2,0-.6,0-1-.4-1.1-1,0,0,0,0,0-.1,0-.6.5-1.1,1.1-1.1,0,0,0,0,0,0,.6,0,1.1.4,1.1,1,0,0,0,0,0,.1ZM18,.1c-.4,0-.6.4-.6.9,0,.4.1,1,.6,1,.4,0,.6-.4.6-.9,0-.6-.2-1-.6-1Z"/>
  <path class="st0" d="M20.4.8c0-.3,0-.4,0-.4h0c0,0,0-.1,0-.1,0,0,0,0,0,0,.2,0,.5,0,.8.1.2,0,.4.1.6.2.2.1.2.3.2.5,0,.2-.2.4-.4.4,0,0,0,0,0,0,0,.3.2.6.3.9,0,0,.1.1.2.1,0,0,0,0,0,0,0,0-.2,0-.2,0-.2,0-.5-.2-.5-.4,0-.2-.1-.4-.1-.5,0,0,0-.1-.1-.1-.1,0-.1,0-.1,0v.4c-.1.3-.1.3,0,.4h0c0,0,0,.1,0,.1-.2,0-.3,0-.4,0-.2,0-.3,0-.4,0,0,0,0,0,0-.1h0c.1,0,.2,0,.2-.3l.2-1.1ZM20.7,1.3c0,.1,0,.1.2.2,0,0,.2,0,.2,0,0,0,.2-.2.2-.3,0-.2,0-.5-.3-.5,0,0,0,0,0,0-.1,0-.1,0-.2.1v.6Z"/>
  <path class="st0" d="M24.3,3c0,.2-.2.4-.2.5,0,0-.1,0-.2,0,0,0,0-.2-.1-.4l-.3-1.1c0-.2,0-.3-.2-.5,0,0,0,.1,0,.2l-.2.6c0,.2-.1.4-.2.6,0,0,0,.1.1.2h0c0,0,0,.1,0,.1-.2,0-.3-.1-.4-.2-.1,0-.2,0-.3-.1,0,0,0,0,0-.1h0c0,0,.2,0,.2,0,.1-.2.2-.3.3-.5l.3-.8c0,0,0-.2,0-.3,0,0,0-.1-.1-.2h0c0,0,0-.1,0-.1.1,0,.3.1.4.2,0,0,.2,0,.2,0,0,.3,0,.6.2.9v.4c.2.2.2.3.3.4,0,0,0,0,0-.1l.2-.4c0-.2.1-.4.2-.6,0,0,0-.1-.1-.2h0c0,0,0-.1,0-.1.2,0,.3.1.4.2.1,0,.2,0,.3.1,0,0,0,0,0,.1h0c0,0-.1,0-.2,0-.1.2-.2.3-.3.5l-.3.7Z"/>
  <path class="st0" d="M25.8,3.9c-.2.3-.1.3,0,.4h0c0,0,0,.1,0,.2-.1,0-.3-.2-.4-.2-.1,0-.3-.1-.4-.2,0,0,0,0,0,0h0c.1,0,.2,0,.3-.2l.6-1c.2-.3.1-.3,0-.4h0c0,0,0-.1,0-.2.1,0,.3.2.4.2.1,0,.3.1.4.2,0,0,0,0,0,0h0c-.1,0-.2,0-.3.2l-.6,1Z"/>
  <path class="st0" d="M27.3,4.6c0,0,0,0-.1,0l-.3.2s0,0,0,0c0,0,0,0,0,.1h0c0,0,0,.2,0,.2,0,0-.2-.1-.3-.2,0,0-.1-.1-.3-.2,0,0,0,0,0,0h0c0,0,.2,0,.2,0,.1,0,.3-.2.5-.3l.7-.5c.1,0,.2-.2.3-.3.1,0,.2,0,.3,0,0,0,0,0,0,0,0,0,0,.2-.2.4l-.4,1.3c0,.2,0,.3,0,.4h0c0,.1,0,.2,0,.2-.1,0-.2-.2-.4-.3-.1,0-.2-.2-.3-.2,0,0,0,0,0,0,0,0,0,0,0,0h0c0,0,0,0,.1,0,0,0,0-.1,0-.2v-.3c.1,0,.1,0,0-.1l-.3-.2ZM27.7,4.7c0,0,0,0,.1,0v-.3c.1-.1.2-.3.2-.4,0,0-.2.1-.3.2h-.2c0,.2,0,.2,0,.3l.2.2Z"/>
  <path class="st0" d="M30.2,7.4c0,0,0,0-.1,0h-.4c0,.1,0,.2-.1.2,0,0,0,0,0,.1h0c0,.1,0,.2,0,.1,0,0-.1-.2-.2-.3,0,0-.1-.1-.2-.2,0,0,0,0,0,0h0c0,.1.2.1.2.1.1,0,.3,0,.5-.2l.8-.3c.1,0,.3,0,.4-.2,0,0,.2,0,.3,0,0,0,0,0,0,0,0,0-.1.2-.3.4l-.7,1.1c-.1.2-.2.2,0,.3h0c0,.1,0,.2,0,.2,0-.1-.2-.3-.3-.4,0-.1-.2-.2-.3-.3,0,0,0,0,0,0,0,0,0,0,0,0h0c0,.1,0,.1,0,0,0,0,0-.1.1-.2l.2-.2s0,0,0-.2l-.2-.3ZM30.6,7.5c0,0,0,0,.1,0l.2-.2c0-.1.2-.3.2-.3,0,0-.2,0-.4.1h-.2c0,.1,0,.1,0,.2l.2.2Z"/>
  <path class="st0" d="M31.6,9.7c0,0-.2.1-.2.2,0,0,0,.1,0,.3.1.2.2.3.6.3,0,0,0,0,0,.1-.2,0-.3.1-.5.1,0-.1-.2-.4-.3-.6l-.2-.4c0-.1-.1-.3-.2-.4,0,0,0,0,0,0h0c0,.2.1.2.4,0l1-.6c.3-.1.3-.2.2-.3h0c0-.1,0-.1,0-.1,0,0,0,0,0,0,0,.1.1.3.2.4,0,.1.2.3.2.4,0,0,0,0,0,0h0c0-.2-.1-.2-.4,0l-1,.6Z"/>
  <path class="st0" d="M32.7,12c-.1,0-.2,0-.3.2,0,0,0,.1,0,.3,0,.3.1.3.6.4,0,0,0,0,0,.1,0,0,0,0,0,0-.2,0-.4,0-.5,0,0-.2-.2-.4-.2-.7v-.4c-.2-.1-.3-.3-.3-.5,0,0,0,0,.1,0h0c0,.2,0,.2.4.1l1.1-.4c.3-.1.3-.1.3-.3h0c0-.1,0-.1,0-.1,0,0,0,0,0,0,0,.2.1.3.2.4,0,.1.1.3.2.4,0,0,0,0-.1,0h0c0-.2-.1-.2-.4,0l-1.1.4Z"/>
  <path class="st0" d="M33.3,14.3c-.3,0-.3,0-.3.2h0c0,.1,0,.1-.1.1,0-.2,0-.3,0-.5,0-.1,0-.3-.1-.5,0,0,0,0,.1,0h0c0,.2,0,.2.4.2l1.2-.3c.3,0,.3,0,.3-.2h0c0-.1,0-.1.1-.1,0,.2,0,.3,0,.5,0,.1,0,.3.1.5,0,0,0,0-.1,0h0c0-.2,0-.2-.4-.2l-1.2.3Z"/>
  <path class="st0" d="M33.8,15.9c0,0,0,0,0,0h-.4c0,0,0-.1-.1,0,0,0,0,0,0,.1h0c0,.1,0,.1-.1,0,0-.1,0-.2,0-.4,0-.1,0-.2,0-.3,0,0,0,0,.1,0h0c0,.2,0,.2.2.3.1,0,.3,0,.5.1l.8.2c.1,0,.3,0,.4,0,0,.1.1.2.2.3,0,0,0,0,0,0,0,0-.2,0-.4.2l-1.2.5c-.2,0-.3.1-.3.2h0c0,.1,0,.2-.1.1,0-.1,0-.3,0-.5,0-.2,0-.3,0-.4,0,0,0,0,.1,0,0,0,0,0,0,0h0c0,.2,0,.2,0,.2,0,0,.1,0,.2,0h.3c0-.1,0-.2,0-.3v-.4ZM34,16.2c0,0,0,0,0,0h.3c.1-.2.3-.2.4-.3,0,0-.3,0-.4,0h-.2c0,0,0,0,0,0v.3Z"/>
  <path class="st0" d="M33.6,19.9c-.2,0-.4,0-.5,0,0,0,0-.1,0-.2,0,0,.2,0,.4-.2l1-.6c.2,0,.3-.2.4-.3,0,0-.1,0-.2,0h-.6c-.2,0-.4,0-.6,0,0,0,0,0-.1.2h0c0,.1,0,.1-.1,0,0-.2,0-.3,0-.4,0-.1,0-.2,0-.3,0,0,0,0,.1,0h0c0,.1,0,.2,0,.2.2,0,.4,0,.6,0h.8c0,0,.2,0,.3,0,0,0,0,0,.1-.2h0c0-.1.1,0,.1,0,0,.1,0,.3,0,.4,0,.1,0,.2,0,.3-.3.1-.5.3-.8.4l-.3.2c-.2.1-.3.2-.4.3,0,0,0,0,.1,0h.4c.2,0,.4,0,.6,0,0,0,0,0,.1-.2h0c0-.1,0,0,.1,0,0,.2,0,.3,0,.4,0,.1,0,.2,0,.3,0,0,0,0-.1,0h0c0-.1,0-.2,0-.2-.2,0-.4,0-.6,0h-.8Z"/>
  <path class="st0" d="M34.4,23.1c-.2,0-.3,0-.5,0,0,0,0,0,0-.1,0,0,0,0,0,0,.3,0,.5-.2.6-.4,0-.3-.1-.8-.7-.9-.6-.2-1,0-1.1.4,0,.3,0,.6.3.7,0,0,0,0,0,.1-.2,0-.3-.1-.5-.2,0-.2,0-.4,0-.6,0-.3.2-.6.5-.7.3-.2.6-.3.9-.2.3,0,.6.3.7.6.1.3.1.6,0,.9,0,.2-.1.4-.2.6Z"/>
  <path class="st0" d="M33,24.5c0,0,0,0-.1,0v.2c-.2.1-.2.2,0,.3h0c0,0,0,.1,0,.2,0,0-.2,0-.3-.2s-.2,0-.3-.1c0,0,0,0,0-.1h0c.2,0,.2,0,.3-.1v-.2c.1,0,.1,0,0-.1l-.4-.2c0,0-.2,0-.3,0,0,0-.1,0-.2.3-.1.2-.1.3.1.7,0,0,0,0,0,0,0,0,0,0,0,0-.2,0-.3-.2-.4-.3,0-.1.2-.4.3-.6l.2-.4c0-.1.1-.3.2-.5,0,0,0,0,.1,0h0c0,.3,0,.3.2.4l1.1.5c.3.1.3.1.4,0h0c0,0,0,0,.1,0,0,.1-.1.3-.2.4l-.3.6c0,.2-.2.3-.2.4,0,0-.3,0-.5-.2,0,0,0,0,0-.1,0,0,.2,0,.3,0,.1,0,.2-.1.2-.2v-.2c.1,0,.1,0,0-.1l-.5-.2Z"/>
  <path class="st0" d="M30.6,27.1c-.2-.1-.2-.4-.1-.5,0,0,0,0,0,0,.1-.2.4-.2.6,0,.2.1.2.3,0,.5-.1.2-.4.2-.5,0,0,0,0,0,0,0Z"/>
  <path class="st0" d="M6.3,30.4c0,0,0,0,0,.1h.2c.1.2.2.3.3.1h0c0,0,0,0,0,0,0,0-.1.2-.2.3,0,0-.1.2-.2.3,0,0,0,0,0,0h0c0-.2,0-.3,0-.4h-.2c0-.2,0-.2-.1-.1l-.3.3c-.2.2-.2.3,0,.4h0c0,.1,0,.2,0,.2-.1-.1-.3-.2-.4-.3-.1,0-.2-.2-.4-.3,0,0,0,0,0,0h0c.1.1.2.1.3-.1l.7-1c.2-.2.2-.3,0-.4h0c0,0,0-.1,0-.1.1,0,.2.2.3.3l.5.4c.2.1.3.2.3.2,0,0-.2.2-.3.4,0,0,0,0-.1,0,0,0,0-.2,0-.3,0-.1,0-.2-.2-.3h-.2c0-.2,0-.2-.2-.1l-.4.5Z"/>
  <path class="st0" d="M9.4,32.6c-.2.5-.9.8-1.4.5,0,0,0,0-.1,0-.5-.2-.7-.9-.5-1.4,0,0,0,0,0-.1.3-.5.9-.8,1.5-.5,0,0,0,0,0,0,.5.3.7.9.5,1.4,0,0,0,0,0,0ZM8.9,31.2c-.3-.2-.7,0-.9.5-.2.3-.4,1,0,1.2.4.2.7-.1.9-.6.3-.5.3-1,0-1.2h0Z"/>
  <path class="st0" d="M10.7,32.5c.1-.3.1-.3,0-.4h0c0,0,0-.1,0-.1.2,0,.5.1.7.2.2,0,.4.2.5.3.1.1.2.4.1.5,0,.2-.3.3-.5.4,0,0,0,0,0,0,0,.3,0,.6.2.9,0,0,0,.1.2.2,0,0,0,0,0,0,0,0-.2,0-.2,0-.2,0-.4-.3-.5-.5,0-.2,0-.4,0-.6,0,0,0-.1-.1-.2-.1,0-.1,0-.1,0v.4c-.2.3-.2.3,0,.4h0c0,0,0,.1,0,.1-.2,0-.3-.1-.4-.2-.1,0-.3,0-.4-.1,0,0,0,0,0-.1h0c.1,0,.2,0,.3-.3l.4-1.1ZM10.9,33c0,.1,0,.1.1.2,0,0,.2,0,.3,0,.1,0,.2-.2.2-.3.1-.2,0-.5-.2-.6,0,0,0,0,0,0-.1,0-.1,0-.2.1l-.2.6Z"/>
  <path class="st0" d="M15,34.1c-.1,0-.1,0-.1,0v.5c0,.3,0,.3,0,.4h0c0,0,0,.1,0,.1-.2,0-.3,0-.5,0-.1,0-.3,0-.5,0,0,0,0,0,0-.1h0c.1,0,.2,0,.2-.3v-1.2c.2-.3.1-.3,0-.4h0c0,0,0,0,0-.1.2,0,.3,0,.5,0,.1,0,.3,0,.4,0,0,0,0,0,0,.1h0c-.1,0-.2,0-.2.3v.4c0,0,0,0,0,.1h.6c.1,0,.1,0,.1,0v-.4c0-.3,0-.3,0-.4h0c0,0,0-.1,0-.1.2,0,.3,0,.5,0,.2,0,.3,0,.4,0,0,0,0,0,0,.1h0c-.1,0-.2,0-.2.3v1.2c-.2.3-.1.3,0,.4h0c0,0,0,.1,0,.1-.2,0-.3,0-.4,0-.2,0-.3,0-.5,0,0,0,0,0,0-.1h0c.1,0,.2,0,.2-.3v-.5c0,0,0,0,0-.1h-.6Z"/>
  <path class="st0" d="M18.1,34c0,0,0,0,0,0h.2c.2,0,.2,0,.2-.2h0c0-.1,0-.1.1,0,0,.1,0,.2,0,.3,0,.1,0,.2,0,.3,0,0,0,0-.1,0h0c0-.2,0-.3-.2-.3h-.2c0,0,0,0,0,.1v.4c0,.1,0,.2,0,.3,0,0,.1,0,.3,0,.3,0,.4,0,.5-.4,0,0,0,0,.1,0,0,0,0,0,0,0,0,.2,0,.4-.1.5-.2,0-.5,0-.7,0h-.4c-.1,0-.3,0-.5,0,0,0,0,0,0-.1h.1c.1,0,.2,0,.2-.4v-1.2c0-.3,0-.3-.2-.3h0s0,0,0-.1c.1,0,.3,0,.4,0h.7c.2,0,.4,0,.4,0,0,0,0,.3,0,.5,0,0,0,0-.1,0,0,0,0-.2-.1-.3,0,0-.2-.1-.3,0h-.2c-.1,0-.1,0-.1.1v.6Z"/>
  <path class="st0" d="M20.4,34.4c0,0,0,0,0,0v.4c0,0,0,0,0,.1,0,0,0,0,.1,0h0s0,0,0,.1c-.1,0-.2,0-.3,0-.1,0-.2,0-.3,0,0,0,0,0,0-.1h0c0,0,.1,0,.2-.2,0-.1,0-.3.1-.5l.2-.8c0-.1,0-.3,0-.4,0,0,.2-.1.2-.2,0,0,0,0,0,0,0,0,0,.2.2.4l.6,1.2c0,.2.1.3.2.3h.1s0,0,0,.1c-.1,0-.3,0-.5,0-.2,0-.3,0-.4,0,0,0,0,0,0-.1,0,0,0,0,0,0h0c0,0,0,0,0,0,0,0,0-.1,0-.2v-.3c-.1,0-.2,0-.3,0h-.4ZM20.8,34.2c0,0,0,0,0-.1v-.2c-.2-.1-.3-.3-.3-.4,0,0,0,.3,0,.4v.3c0,0,0,0,0,0h.3Z"/>
  <path class="st0" d="M23.2,34.1c0,.1,0,.2.1.3,0,0,.1,0,.3,0,.3,0,.4-.1.4-.5,0,0,0,0,.1,0,0,0,0,0,0,0,0,.2,0,.4,0,.5-.2,0-.4.1-.7.2h-.4c-.1.2-.3.2-.5.3,0,0,0,0,0-.1h.1c.1-.1.1-.1,0-.4l-.3-1.2c0-.3-.1-.3-.2-.3h0s0,0,0,0c0,0,0,0,0,0,.2,0,.3,0,.5-.1.1,0,.3,0,.4-.1,0,0,0,0,0,.1h0c-.1,0-.1.1,0,.4l.3,1.1Z"/>
  <path class="st0" d="M25.1,32c0,0,0,0-.1,0h-.2c-.2.2-.2.3-.2.6,0,0,0,0-.1,0,0-.2,0-.4-.1-.5,0,0,0,0,0,0,0,0,0,0,0,0,0,0,0,0,.3,0l1-.5c.2,0,.2-.1.2-.2,0,0,0,0,0,0,0,0,0,0,0,0,0,.2.1.4.2.5,0,0,0,0,0,0-.1-.2-.2-.3-.5-.2h-.2c0,.1,0,.1,0,.2l.6,1.3c.1.3.2.3.3.2h.1s0,0,0,0c-.2,0-.3.1-.5.2-.1,0-.3.1-.5.2,0,0,0,0,0-.1h.1c.1-.1.1-.2,0-.5l-.6-1.3Z"/>
  <path class="st0" d="M27.9,31.4c-.1,0-.1,0,0,.2l.3.4c.2.2.2.3.3.2h0s0,0,0,0c-.1,0-.3.2-.4.3-.1,0-.2.2-.4.3,0,0,0,0,0,0h0c.1-.2,0-.2,0-.4l-.7-1c-.2-.2-.2-.3-.3-.2h0s0,0,0,0c.1,0,.3-.2.4-.3.1,0,.2-.2.3-.3,0,0,0,0,0,0h0c0,.1,0,.2,0,.4l.2.3c0,0,0,0,.2,0l.5-.4c.1,0,.1,0,0-.2l-.2-.3c-.2-.2-.2-.3-.3-.2h0s0,0,0,0c.1,0,.3-.2.4-.3.1,0,.2-.2.3-.3,0,0,0,0,0,0h0c-.1.1,0,.2,0,.4l.7,1c.2.2.2.2.3.2h0s0,0,0,0c-.1,0-.3.2-.4.3-.1,0-.2.2-.4.3,0,0,0,0,0,0h0c.1-.1,0-.2,0-.4l-.3-.4c0,0,0,0-.2,0l-.5.4Z"/>
  <path class="st0" d="M31.3,30c0,.3-.3.6-.6.6-.3,0-.6-.3-.6-.6,0-.3.3-.6.6-.6.3,0,.6.3.6.6ZM30.2,30c0,.2.2.4.5.4s.4-.2.4-.5c0-.2-.2-.4-.4-.4-.3,0-.5.2-.4.5ZM30.5,29.8c0,0,0,0,0,0h0s0,0,0,0c.1,0,.2,0,.3,0s.2,0,.2.2c0,0,0,.1,0,.1,0,0,0,0,0,0,0,0,0,.1.1.2,0,0,0,0,0,0,0,0,0,0,0,0,0,0,0,0,0,0,0,0-.1,0-.2,0h0c0-.1,0-.1,0-.1,0,0,0,0,0,0,0,0,0,0,0,0h0c0,.1,0,.2,0,.2h0s0,0,0,0c0,0,0,0-.1,0s0,0-.1,0c0,0,0,0,0,0h0c0,0,0,0,0-.1v-.3ZM30.6,29.9s0,0,0,0c0,0,0,0,0,0,0,0,0,0,0,0,0,0,0-.1,0-.1s0,0,0,0h0Z"/>
  <path class="st0" d="M19.4,13.2c0,.7-.6,1.4-1.4,1.4s-1.4-.6-1.4-1.4.6-1.4,1.4-1.4c.7,0,1.4.6,1.4,1.4Z"/>
  <path class="st0" d="M11.3,13.2c0,.7-.6,1.4-1.4,1.4-.7,0-1.4-.6-1.4-1.4,0-.7.6-1.4,1.4-1.4h0c.7,0,1.4.6,1.4,1.4h0Z"/>
  <path class="st0" d="M26.9,13.2c0,.7-.6,1.4-1.4,1.4-.7,0-1.4-.6-1.4-1.4,0-.7.6-1.4,1.4-1.4h0c.7,0,1.4.6,1.4,1.4Z"/>
  <path class="st0" d="M30.1,13.1l-.5-.3-4.3,2.4-3.2-3.3-4,3.2-4.2-3.1-3.8,3.2-3.6-2.5-.6.3,2.4,3.1-1,7.2h1l1.1-3.3,1.4.3.8,3h1.2l-1.1-7.3,2.4-3.3,2.4,2.4-1.8,8h1.2l.6-3.9h2.5l1,4h.9l-.9-7.3,2.1-3.3,2.1,3.1-1.4,7.5h.8l1-3.5h2.4l.6,3.5h.8s-.9-7.7-.9-7.7l2.7-2.6ZM19.1,17l-1,1.2-1.1-1.2s-.3-.6.1-.9c.2-.1.5-.2.7-.1.1,0,.2.1.3.2.1-.2.3-.3.6-.3.4,0,.6.3.7.6,0,.2,0,.3-.2.5Z"/>
</svg>