<?xml version="1.0" encoding="UTF-8"?>
<svg data-name="Layer 1" viewBox="0 0 321.01 293.64" xmlns="http://www.w3.org/2000/svg">
<defs>
<style>.cls-1 {
        fill: #fff;
      }</style>
</defs>
<path class="cls-1" d="M244.66,262.88c3.28,3.27,27.35-21.4,30.1-24.57,61.81-71.35,31.96-173.87-49.83-213.75-32.09-15.64-68.15-17.05-102.8-10.15l4.02,1-1.02,1.99,8.04,1c-10.45,1.11-21.71,4.37-30.64,10.02-.95.55.78,1.96,1.04,2.01,3.39.65,23.06-6.25,29.23-6.9,1.11-.12,3.62-.9,3.38.87-10.67,2.67-23.39,5.43-32.13,12.02,10.88-1.94,21.19-6.67,32.09-8.56,28.21-4.89,68.29,5.18,91.36,22.18,42.7,31.47,56.8,80.24,41.76,130.66-.39,1.3-7.42,17.77-5.02,17.03l9.05-8c1.73,10.93-6.58,20.56-11.48,29.66l1.93,1.85-4.01,9.57c25.56-24.84,34.91-62.28,34.15-97.18l1.99,9.01c.11-3.16-.12-6.36.01-9.52.05-1.22-.76-3.72.99-3.49-.42,8.35.61,17.25,0,25.53-1.35,18.12-8.03,43.34-17.26,58.93-11.39,19.24-28,35.27-46,48.29l3.11-.91,25.01-17.62c-.97,3.18-19.15,16.95-17.07,19.02ZM38.26,210.78c-4.26-.57-10.5,0-15.07,0-.6,0-1.83,1.08-.53,2.53,6.18,6.86,22.6,5.04,30.51,9.65,8.04,4.68,21.93,22.7,30.25,29.94,37.02,32.18,87.56,41.8,133.07,21.48,2.59-1.16,13.71-5.6,5.79-6.28-38.78,16.48-79.51,18.26-116.54-3.41-14.76-8.63-47.41-35.18-49.83-52.49-1.99-14.28,9.83-28.12-.07-39.49-.52,4.57-5.03,12.38-5.03,16.53v16.03c0,.56,2.48,3.5.01,3.5-3.27-9.19-13.15-28.04-7.5-37.02,1.25-1.99,4.01-3.59,5.46-5.58,4.65-6.37,8.53-13.31,8.05-21.52-1.89-.44-2.38,1.07-3.51,2-7.28,5.94-12.07,14.83-13.57,24.04l-2.75-8.76c-2.19-13.71-.75-23.24,9.78-32.82,5.17-4.71,12.12-6.68,13.05-15.05.23-2.07-.71-1.73-2.3-1.29-6.23,1.74-10.9,7.42-15.17,11.93l-5.6,9.93c-.46-9.28,2.11-18.49,5.53-27.03,4.07-10.15,12.97-20.12,11.54-31.58l-1.99-.5c-8.23,13.14-15.16,27.09-15.09,43.07l-4.6-7.92c-4.68-5.72-10.37-9.91-17.48-12.11-.43,11.86,16.62,18.64,19.4,28.23,2.28,7.87-.08,18.77-.34,26.87-2.39-1.56-3.19-5.26-5.01-7.51-5.7-7.01-12.53-12.07-22.09-10.52,3.14,8.11,9.77,13.28,16.77,17.83,2.74,1.78,6.95,2.87,9.3,4.75,4.8,3.83,4.52,18.37,6.06,24.51-8.24-7.9-19.08-15.24-31.12-13.53,4.73,8.97,11.73,13,21.05,16.07,2.35.78,5.08.39,7.65,1.39,7.38,2.87,11.62,22.25,15.49,29.13-.56.46-11.07-4.67-13.56-5ZM212.51,260.89l-20.08,5.99c4.51-.09,9.58-1.31,13.84-2.71,1.71-.56,5.5-1.56,6.24-3.28Z"/>
<path d="M244.66,262.88c-2.09-2.08,16.1-15.84,17.07-19.02l-25.01,17.62-3.11.91c18.01-13.03,34.61-29.05,46-48.29,9.23-15.59,15.91-40.81,17.26-58.93.62-8.29-.42-17.18,0-25.53-1.75-.23-.94,2.28-.99,3.49-.13,3.17.1,6.37-.01,9.52l-1.99-9.01c.76,34.9-8.59,72.34-34.15,97.18l4.01-9.57-1.93-1.85c4.91-9.1,13.21-18.73,11.48-29.66l-9.05,8c-2.4.74,4.64-15.73,5.02-17.03,15.03-50.42.94-99.19-41.76-130.66-23.07-17-63.15-27.07-91.36-22.18-10.9,1.89-21.2,6.62-32.09,8.56,8.74-6.6,21.46-9.35,32.13-12.02.24-1.77-2.28-.99-3.38-.87-6.17.65-25.84,7.55-29.23,6.9-.26-.05-1.99-1.46-1.04-2.01,8.93-5.65,20.2-8.92,30.64-10.02l-8.04-1,1.02-1.99-4.02-1c34.65-6.9,70.71-5.49,102.8,10.15,81.8,39.87,111.64,142.4,49.83,213.75-2.75,3.17-26.82,27.84-30.1,24.57Z"/>
<path d="M38.26,210.78c2.49.33,13,5.46,13.56,5-3.87-6.88-8.11-26.26-15.49-29.13-2.57-1-5.29-.61-7.65-1.39-9.33-3.08-16.32-7.1-21.05-16.07,12.04-1.71,22.88,5.63,31.12,13.53-1.54-6.14-1.26-20.68-6.06-24.51-2.36-1.88-6.56-2.96-9.3-4.75-7-4.55-13.63-9.72-16.77-17.83,9.56-1.56,16.39,3.51,22.09,10.52,1.82,2.24,2.62,5.95,5.01,7.51.26-8.1,2.62-19.01.34-26.87-2.78-9.59-19.83-16.37-19.4-28.23,7.11,2.2,12.8,6.39,17.48,12.11l4.6,7.92c-.06-15.98,6.86-29.93,15.09-43.07l1.99.5c1.43,11.46-7.47,21.43-11.54,31.58-3.42,8.54-5.99,17.75-5.53,27.03l5.6-9.93c4.27-4.51,8.94-10.18,15.17-11.93,1.59-.44,2.54-.79,2.3,1.29-.94,8.37-7.88,10.34-13.05,15.05-10.52,9.58-11.96,19.11-9.78,32.82l2.75,8.76c1.5-9.21,6.29-18.1,13.57-24.04,1.13-.93,1.62-2.43,3.51-2,.47,8.21-3.4,15.15-8.05,21.52-1.45,1.99-4.21,3.59-5.46,5.58-5.65,8.98,4.23,27.83,7.5,37.02,2.47,0-.01-2.94-.01-3.5v-16.03c0-4.15,4.51-11.96,5.03-16.53,9.91,11.37-1.92,25.21.07,39.49,2.42,17.31,35.07,43.86,49.83,52.49,37.04,21.67,77.76,19.88,116.54,3.41,7.92.67-3.2,5.12-5.79,6.28-45.51,20.32-96.05,10.7-133.07-21.48-8.32-7.23-22.21-25.25-30.25-29.94-7.91-4.61-24.33-2.79-30.51-9.65-1.3-1.44-.07-2.53.53-2.53,4.57,0,10.81-.57,15.07,0Z"/>
<path d="M212.51,260.89c-.74,1.72-4.53,2.72-6.24,3.28-4.26,1.4-9.33,2.62-13.84,2.71l20.08-5.99Z"/>
</svg>
