<?xml version="1.0" encoding="UTF-8"?>
<svg id="Layer_2" data-name="Layer 2" xmlns="http://www.w3.org/2000/svg" viewBox="0 0 554 554">
  <defs>
    <style>
      .cls-1 {
        fill: none;
      }

      .cls-2 {
        fill: #a8a29e;
      }

      .cls-3 {
        fill: #fff;
      }

      .cls-4 {
        fill: #222;
      }
    </style>
  </defs>
  <ellipse class="cls-3" cx="277" cy="274.7" rx="275" ry="272.7"/>
  <g>
    <g>
      <path class="cls-2" d="M525.83,357.35c-1.55,5.53-3.29,10.99-5.21,16.37"/>
      <path class="cls-2" d="M24.82,373.72c-1.91-5.38-3.65-10.84-5.21-16.37"/>
      <path class="cls-2" d="M511.7,395.55c-2.59,5.56-5.36,11.03-8.33,16.37"/>
      <path class="cls-2" d="M42.07,411.92c-2.97-5.34-5.74-10.81-8.33-16.37"/>
      <path class="cls-2" d="M489.77,433.74c-3.9,5.62-8.03,11.08-12.37,16.37"/>
      <path class="cls-2" d="M68.04,450.11c-4.33-5.29-8.46-10.75-12.36-16.37"/>
      <path class="cls-2" d="M106.59,488.31c-6.43-5.17-12.61-10.63-18.51-16.37"/>
      <path class="cls-2" d="M457.37,471.94c-5.9,5.74-12.08,11.2-18.51,16.37"/>
      <g>
        <path class="cls-2" d="M38.06,406.01h490.29c1.89-3.86,3.61-7.78,5.15-11.76H32.91c1.54,3.97,3.26,7.89,5.15,11.76Z"/>
        <path class="cls-2" d="M55.12,433.45h456.17c2.93-3.84,5.68-7.76,8.24-11.76H46.88c2.56,4,5.3,7.92,8.24,11.76Z"/>
        <path class="cls-2" d="M80.79,460.88h404.81c4.28-3.8,8.37-7.72,12.23-11.76H68.57c3.86,4.04,7.94,7.96,12.23,11.76Z"/>
        <path class="cls-2" d="M118.91,488.31h328.57c6.36-3.71,12.47-7.64,18.3-11.76H100.61c5.84,4.12,11.94,8.04,18.3,11.76Z"/>
      </g>
    </g>
    <path class="cls-2" d="M377.13,344.75l-100.07,15.34-116.94-35.77-56.1,21.76-81-6.38c.69,14.29,2.52,28.29,5.41,41.9h495.73l-147.02-36.86Z"/>
    <g>
      <path class="cls-1" d="M240.46,177.33l-38.31-1.81,20.13,10.36,18.09,16.27c-1.07-4.71,3.73-22.21.09-24.82Z"/>
      <path class="cls-1" d="M158.97,237.69l44.4,25.35c-6.14-16.64-27.08-30.9-44.4-25.35Z"/>
      <path class="cls-1" d="M296.09,173.19l-10.06,36.57c7.59-5.44,13.16-14.58,20.34-20.3,1.62-1.29,16.85-9.44,15.42-11.4-8.73-1-16.71-6.56-25.7-4.87Z"/>
      <path class="cls-1" d="M306.98,133.66c-1.86-2.47-20.7.93-24.3,2.26-7.02,2.61-14.61,9.67-17.63,16.75l25.02,1.29,16.9-20.3Z"/>
      <path class="cls-1" d="M195.98,234.49c19.16,20.91,29.57,47.71,42.99,72.5l6.33,15.67-8.62-92.61-40.7,4.44Z"/>
      <path class="cls-1" d="M272.7,172.59c-4.94.85-9.85,1.78-14.88,1.81-.71.45-2.39,11.1-2.61,13.17-2.92,27.67-1.29,59.61,2.79,87.17l7.05,33.96c3.24-35.26-.64-72.98,6.75-107.87,1.63-7.68,8.73-22.08,9.07-27.5.29-4.52-5.15-1.26-8.17-.75Z"/>
      <path class="cls-1" d="M361.04,197.42c2.09-.68,3.24.53,2.68-2.88-18.61,1.17-39.87.06-55.39,12.16-15.04,11.72-23.07,31-24.77,50,2.05,2.33,9.5-12.4,10.59-13.84,21.49-28.53,34.28-34.85,66.9-45.43Z"/>
      <path class="cls-4" d="M493.12,237.25c-2.22-7.2-29.66-5.32-35.94-6.25-13.27-1.97-22.62-11.25-39.75-12.4-19.01-1.28-21.33,2.85-36.87,7.85-12.06,3.88-27.06,2.96-39.37,6.45l-13.95,8.13,7.71,2.09,12.62.7,32.19,4.64c-11.65,7.81-26.04,9.57-38.25,16.48-19.12,10.81-34.3,28.55-44.24,48.38-.63,1.26-5.78,19.22-8.78,15.7-1.29-30.92,5.78-60.42,23.66-85.39,18.8-26.26,56.56-40.28,87.29-44.7,21.11-3.04,56.72,3.71,75.32-4.99,2.49-1.17,4.57-2.88,6.05-5.27.75-4.49-13.72-6.95-16.94-7.67-5.97-1.34-12.25-1.5-18.12-2.96-1.87-.47-2.17.89-1.85-2.51,6.66-1.18,35.4-2,36.8-9.71.76-4.17-5.89-7.22-9.14-7.96-8.67-1.99-26.24-3.24-35.69-3.89-8.41-.58-20.86,1.44-28.33-.04-2.47-.49-4.63-3.49-7.68-4.79-11.02-4.69-27.31-3.16-38.85-1.16-2.79.48-18.71,4.11-19.93,4.88-2.53,1.6-1.4,4.53-2.8,4.96-1.43.43-8.74,1.11-10.88,1.26-8.25.55-17.08-.08-25.34-.07,9.84-12.88,23.9-22.54,40.11-24.07,8.7-.82,18.3.61,27.1-.03,6.84-.5,47.38-4.97,49.8-9.03,3.98-6.66-8.41-8.9-11.91-9.61-14.99-3.06-30.8-3.03-45.88-5.47l20.88-8.3c8.42-7.69-15.93-12.14-20.59-12.92-17.92-3.01-37.56-1.17-55.81-2.87,2.42-3.98,26.72-4.6,21.64-12.73-3.02-4.83-28.26-8.2-34.6-8.81-10.74-1.04-26.41-1.49-36.65,1.61-3.61,1.09-8.86,5.33-11.6,5.61-2.42.25-6.25-1.21-9.77-.95-5.55.4-23.12.38-22.19,7.82-.59,3.39,10.93,4.49,8.06,7.45-15.69,2.95-31.42-1.42-47.18,1.61-4.13.79-14.09,3.82-11.46,9.79,2.59,5.89,25.47,8.27,32.04,10.25,7.25,2.18,14.15,6.16,21.39,8.44,14.34,4.51,29.6,5.4,43.34,11.9l-2.36,6.89c-3.15,1.95-11.92-1.84-16.24-2.33-6.98-.79-14.19.16-21.17-1.06-10.53-1.84-19.78-6.65-31.07-7.41-9.07-.61-57.55,4.55-61.7,11.38-2.99,8.81,8.47,8.86,13.72,11.32,1.45.68,2.23-.61,1.74,2.65-2.71,2.32-43.85,2.31-52.13,4.12-4.1.89-9.09,2.7-9.28,7.75.76,8.59,24.35,10.27,31.2,10.97,6.21.63,16.51-1.32,21.92,1.56,2.09,1.12,2.37,3.37,4.12,4.64,8.07,5.88,29.56,1.3,39.2,1.54,10.64.27,34.23,9.98,42.7,16.99,5.04,4.18,14.22,12.99,14.79,19.68h-25.9c-.38-.27,4.52-4.44,1.88-8.91-1.12-1.89-19.11-6.63-22.56-7.24-10.6-1.88-27.58-3.44-37.37,1.48-3.81,1.91-7.63,8.21-8.19,8.35-8.41,2.12-30.39-3.48-36.42-.09-4.03,2.27,0,5.38,1.52,7.66-5.81-1.64-41.48,3.67-23.77,12.41,4.35,2.15,22.38,4.77,28.11,5.34,5.23.52,15.54-1.17,19.52.22,1.36.48,3.47,4.82,6.92,6.84,6.78,3.98,17.72,5.84,25.56,9.23,66.89,28.95,86.47,106.96,75.48,175.76-.96,5.98-5.54,27.94-11.61,28.75-49.53-10.09-103.37-19.83-151.9-.9,52.11,54.05,127.1,95.71,208.46,95.71,65.39,0,120.52-26.02,172.29-66.35l-6.22,1.24c-20.38,16.68-49.01,13.66-72.95,7.95-47.79-11.41-74.54-49.71-77.51-99.16-5.37-89.35,42.33-137.62,127.72-141.25,6.32-.27,18.87,3.41,24.55-.38,2.03-1.36,1.87-4.33,5.04-4.96,6.18-1.23,41.12,3.94,36.28-11.82ZM321.79,178.06c1.44,1.97-13.79,10.11-15.42,11.4-7.18,5.71-12.75,14.86-20.34,20.3l10.06-36.57c8.99-1.69,16.97,3.87,25.7,4.87ZM282.68,135.92c3.6-1.34,22.44-4.74,24.3-2.26l-16.9,20.3-25.02-1.29c3.02-7.08,10.6-14.14,17.63-16.75ZM222.28,185.88l-20.13-10.36,38.31,1.81c3.63,2.6-1.16,20.11-.09,24.82l-18.09-16.27ZM158.97,237.69c17.31-5.55,38.26,8.71,44.4,25.35l-44.4-25.35ZM238.97,307c-13.42-24.79-23.83-51.59-42.99-72.5l40.7-4.44,8.62,92.61-6.33-15.67ZM271.79,200.84c-7.4,34.89-3.52,72.61-6.75,107.87l-7.05-33.96c-4.07-27.56-5.71-59.5-2.79-87.17.22-2.08,1.9-12.73,2.61-13.17,5.03-.03,9.94-.97,14.88-1.81,3.02-.52,8.46-3.77,8.17.75-.34,5.42-7.45,19.82-9.07,27.5ZM283.56,256.7c1.71-19,9.73-38.27,24.77-50,15.52-12.1,36.78-10.99,55.39-12.16.56,3.41-.59,2.2-2.68,2.88-32.62,10.59-45.41,16.9-66.9,45.43-1.08,1.44-8.53,16.17-10.59,13.84Z"/>
    </g>
  </g>
</svg>