<?xml version="1.0" encoding="UTF-8"?>
<svg id="Layer_1" data-name="Layer 1" xmlns="http://www.w3.org/2000/svg" viewBox="0 0 780 780">
  <defs>
    <style>
      .cls-1 {
        fill: #adadad;
      }

      .cls-2 {
        fill: #fff;
      }
    </style>
  </defs>
  <path class="cls-2" d="M649.63,99.08C548.34,6.8,396.86-19.64,267.25,21.77,42.63,93.54-61.71,357.31,46.32,567.48c109.65,213.32,387.37,275.46,578.91,130.86,193.91-146.39,203.1-436.43,24.39-599.25Z"/>
  <path d="M649.63,99.08c178.7,162.82,169.52,452.86-24.39,599.25-191.55,144.61-469.26,82.46-578.91-130.86C-61.71,357.31,42.63,93.54,267.25,21.77c129.61-41.41,281.09-14.97,382.38,77.31ZM367.34,24.35C93.46,38.77-63.79,342.77,76.83,578.22c94.63,158.44,295.4,223.44,464.32,145.68,185.49-85.39,269.58-305.72,179.13-492.53C653.16,92.75,521.68,16.22,367.34,24.35Z"/>
  <path class="cls-2" d="M367.34,24.35c154.34-8.13,285.82,68.4,352.94,207.03,90.45,186.81,6.36,407.14-179.13,492.53-168.92,77.76-369.68,12.76-464.32-145.68C-63.79,342.77,93.46,38.77,367.34,24.35ZM481.8,49.65c-50.64-13.21-116.32-14.99-167.74-5.13-61.48,11.79-144.6,56.5-184.28,105.55-2.53,3.12-6.39,7.39-.04,8.12,33.82,3.91,75.06-3.06,109.67,0,19.88-2.64,40.29-.03,60.32-1.01,3.21-.16,20.61-1.67,21.57-3.08,1.18-4.33-6.44-5.56-9.65-5.92-23.12-2.65-51.93.37-76.29-1.13-6.68-.41-27.13-1.34-32.11-3.09-12.62-4.42,2.11-7.69,7.9-7.99,36-1.86,73.79,2.25,109.66-1.01,6.27-.57,6.06-4.71,2.11-8.25l-79.54-4.43c-19.57,3.06-38.74,1.57-58.21-1.54-2.92-.47-5.65-1.83-8.64-1.92l2.51-3.01c34.04-4.2,67.28-4.88,101.58-5,77.75-.28,155.93.57,234.26-.01,19.6-.15,50.02,2.11,68.01-3.35,3.15-.96,6.65-1.86,4.33-5.77s-25.89-3.12-31.22-3.05c-78.03,1.08-160.66,3.89-238.27-.92-10.13-.63-20.46-2.42-30.62-3.08l9.8-3.77c78.27-3.8,157.58,1.06,236.01-3.27,8.06-.44,17.65,2.09,23.61-4.55-3.71-.43-5.06-.44-8.03-2.54l4.01-2.99c-13.9.13-27.84-.19-41.75-.05-59.96.57-120.7-.31-180.96-.93-2.82-.03-7.39-1.4-10.06-1.08-2.02.24-1.3,1.84-2.15,2.05-1.37.32-24.2-2.64-27.84-3.15-1.41-.2-19.04-3.05-16.72-4.9l57.77-3.08c56.19-2.74,117.29,3.25,172.95-.98,3.5-.27,15.3-1.06,7.92-5.97-2-1.32-3.97-.14-6.14-.74-7.22-2-16.04-7.01-23.74-9.02ZM454.01,405.65c.69,5.81-.5,12.71,0,18.65-15.38-23.51-39.75-35.83-67.02-40.16-20.25-3.21-41.88-2.47-61.62-8.78-8.54-2.73-16.47-8.19-25.17-10.56l8.55-1.99c16.77-.35,39.79,1.69,54.48-7.88,10.81-7.04,2.87-10.59-5.51-13.02-18.6-5.4-33.55-3.22-52.01-3.23-4.11,0-8.24-1.82-12.56-1.09-2.84-2.92,8.2-5.83,9.55-8.06,3.92-6.49-7.35-8.44-11.54-9.59-35.47-9.77-72.34-10.49-108.95-9.42-4.73,5.14-.35,8.24,4.83,10.01,4.63,1.58,13.45,1.76,17.02,4.1,1.21.79,1.97,1.25,1.64,2.89-1.54-.11-3.04.82-4.52.81-7.52-.02-16.64-1.67-24.09-1.86-26.27-.65-52.28-.46-78.42.08-6.44.13-43.53-1.21-45.65,2.1-1.7,7.19,3.12,10,9.51,10.87,27.4,3.76,65.85-1.46,94.31-.82,4.44.1,12.07,2.34,11.22,7.93-2.88,3.76-6.58,5.41-11.22,5.97-22.15,2.64-48.25-2.11-70.81.57-9.41,5.68-1.27,10.81,6.02,12.2,34.97,6.66,81.41-2.49,118.22.41,8.82.7,17.11,3.92,22.58,11.12l-71.74,1.16c-3.12,1.03-2.4,6.79,2.08,7.7,1.28.26,7.94,1.23,8.83,1.23h41.22l1.44,1.63c-.92,4.71-2.17,5.93,2.38,8.64,14.24,8.49,34,8.21,49.5,9.93,14.97,1.66,29.85,4.81,45.02,4.61,39.09-.51,76.95-23.09,111.73,5.45,24.66,20.24,31.18,50.41,30.73,81.17-1.06,72.94-29.49,153.19-107.42,171.54-16.91,3.98-34.13,4.45-50.88,8.3-2.61-.58-1.81-12.86-11.94-9.8-2.22.67-2.97,4.16-5.73,3.82.84-5.68-1.52-9.78-7.57-9.16-5.09.52-3.33,4.72-6.5,7.14-3.17-17.91-24.44-10.17-18.11,6.05-1.37,1.15-11.22-10.15-19.5-4.93-3.47,2.19-2.57,7.41-2.61,10.99-8.97-.11-17.47-.52-26.14,2.02-1.53,1.52,4.09,4.02,5.01,4.55,13.36,7.65,47.62,26.69,61.29,29.26,6.41,1.2,21.34-3.89,28.16-6.14,74.43-24.53,132.68-56.68,160.91-134.03,11.74-32.18,12.18-66.01,14.1-99.79-5.17-40.28,10.88-108.73-10.07-143.23-12.84-21.15-25.68-24.05-42.73-37.8-5.53-4.46-15.04-13.81-20.17-19.09-1.68-1.73-2.87-4.25-4.48-6.08,3.7-.57,6.44.63,9.73,1.83,9.28,3.39,21.36,11.82,30.61,16.69,6.68,3.52,14.11,5.64,20.66,9.53,5.45,3.24,17.98,12.01,19.2,18.05,11.3,55.85,2.92,113.41,5.3,170.19l-4.06,46.83c2.38.37,3.27-2.03,3.76-3.78,6.49-22.94,11.46-50.61,12.36-74.31.77-20.31-1.34-40.84.96-61.04,2.51-.02,5.73-.74,6.03,2.53,1.16,51.59,1.03,100.26-17.33,148.98-31.42,83.39-63.19,128.84-149.04,161.05-6.03,2.26-41.89,12.6-42.74,16.63-.36,1.72,1.33,2.04,2.51,2.5,2.95,1.15,32.05,7.83,33.8,7.52,1.15-.2,5.88-2.57,7.59-3.3,74.69-32.07,127.01-89.49,154.16-166,6.56-18.48,10.14-42.57,17.09-59.48.48-1.17.7-2.91,2.48-2.54,4.19.88,1.76,10.34,1.23,13.31-14.81,82.62-58.57,161.96-133.93,202.42-11.76,6.32-25.46,10.26-35.67,18.67,11.33,1.24,27.45,5.12,38.64,3.46,2.27-.34,7.24-3.3,9.05-2.84,1.19.3,1.14,2.63,2.27,2.93,3.66.96,22.87.27,28,.02,54.82-2.61,107.67-20.26,154.95-47.26,43.78-25,80.51-60.76,109.89-101.5-9.03-5.47-18.08,3.86-26.44,5.62-3.01-4.94-6.48-7.64-11.97-9.42-5.84-1.9-18.95-3.11-25.14-2.46-13.3,1.4-20.04,9.51-19.88,22.9-6.09-.88-11.35-8.34-18.36-6.89-9.49,1.97-8.7,15.08-11.42,15.88-10.15-2.29-20.62.97-30.53,3.11-1.53-11.04-5.99-21.75-6.91-32.9-.5-6,.18-12.06-.09-18.06-1.74-38.4-3.58-81.61-2.1-119.98,1.12-28.96,9.64-67.69,36.57-83.3,24.89-14.43,52.73-21.35,70.05-47.71,15.73-1.79,35.46-4.45,47.28-16.1,3.78-3.73,6.01-9.54,10.03-13.13,8.56-1.01,23.58-.14,29.6-7.61,1.07-1.33,2.77-4.38,2.11-5.98-3.8-9.14-35.29-7.41-43.78-6.09-.25-3.11,4.07-5.78,4-8.58-.09-3.69-5.81-4.96-8.64-5.41-11.62-1.86-28.28-2.48-40.09-2.12-6.12.19-19.5.75-24.92,2.23-2.17.6-5.32,2.47-4.64,5.11.79,3.07,8.73,4.88,6.92,6.74-2.61,2.68-32.85,2.24-39.58,3.17-6.24.86-20.54,4.24-11.2,11.99,9.57,7.93,28.79,6.12,40.59,7.17l2.13,10.96c-5.23-3.06-11.95-4.83-17.08-.49,3.96,8.45,16.34,3.95,23.16,5.99l15.03,9.1c-19.82,21.51-47.56,31.97-74.38,41.85,2.75-10.73,12.23-39.56,5.07-48.67-.99-1.26-3.47-2.53-4.59-.75-1.49,2.38-1.96,15.14-2.79,19.38-2.59,13.09-8.34,26.7-13.31,39.08-9.19,22.88-14.34,42.99-19.28,67.37-1.72,8.5-1.93,20.1-4.38,27.86-.52,1.65-1.04,2.55-2.45,3.59-2.93-12.72-1.53-28.58.8-41.54,1.72-9.54,5.01-18.55,8.9-27.37,1.79-4.07,5.79-8.88,5.39-12.74-1.56,2.6-8.55,5.03-8.55.5v-75.61c0-.63,1.36-6.12,1.69-7.38,9.72-37.03,41.73-37.88,69-56.82,6.38-4.43,9.91-10.8,18.27-10.98,19.29-.41,34.96,2.13,55.14-1.1,8.31-1.33,21.39-2.48,24.71-11.3-.63-3.81-17.27-6.88-20.8-7.42-13.72-2.07-28.33-1.23-41.81-3.44-6.01-.98-20.51-4.29-6.86-7.62,10-2.44,40.08-.67,45.5-8.81.64-.97,1.19-1.81.99-3.04-.03-1.2-.78-1.83-1.52-2.62-10.67-11.39-66.24-6.5-82.52-7.98-2.5-.23-4.94-.44-7.03-2.03l.55-2.53c12.61-5.08,30.11-.11,40.12-11.25.82-4.86-14.3-7.21-17.48-7.45-18.44-1.44-36.97,2.32-55.37,1.09-2.23-.15-4.29-.86-6.49-1.06.35-6.54,22.94-4.47,19.64-12.06-1.93-4.44-15.77-7.05-20.43-7.82-47.51-7.88-91.83-5.56-139.47-2.31-7.24.49-32.53-.54-37.24,2.98-.95.71-2.54,3.29-2.32,4.45.46,1.22,1.5,1.85,2.52,2.51,10.84,6.96,79.88,1.54,98.35,3.19,12.35,1.1,15.83,7.8,1.92,9.96-14.84,2.3-33.37-1.04-47.09,1.17-2.83.46-4.99,2.92-8.14,3.93-30.54,9.81-74,4.89-106.53,8.1-3.56.35-9.11,1.54-8.03,6.18s15.65,6.45,20.11,6.92c17.32,1.82,39.35.82,57.25,1.06,13.53.18,27.45-1.03,40.75.98,3.6,5.36-17.64,9.64-20.73,9.95-6.54.66-13.57-.45-20.02.08-6.98.58-14.06,2.56-21.08,3.05-21.17,1.5-44.64.55-65.34,3.03-4.09.49-11.37,2.62-8.05,8.09,4.53,7.47,51.39,4.38,61.38,4.98,5.29.32,14.06.54,17.51,4.68,1.06,5.25-22.68,8.05-26.61,8.46-18.95,1.98-38.27.63-57.29,2.03-13.58,1-27.71,3.99-41.24,5.02-11.58.88-23.54-.23-35.17,1.03-3.59.39-10.26,1.1-9.04,6.16,1.45,6.04,12.13,7.07,17.22,7.8,27.19,3.88,57.47-.7,85.08,1.39,12.86,3.26,7.4,10.77-2.78,11.87-17.23,1.85-35.07.39-53.14,3.16-17.65,2.71-32.04,9.71-50.42,10.94-14.9.99-30.23,1.34-45.19,2.07-5.89.29-28.76-1.93-31.23,2.97-2.72,5.4,2.56,7.58,7.06,8.08,13.62,1.52,34.72.82,49.21,1.06,28.85.47,57.78-.63,86.47-1.1,24.96-.41,23.99,2.24,44.79,10.61,28,11.27,55.1,18.67,85.74,17.86,10.48,8.99,19.8,19.27,30.98,27.41,22.59,16.45,52.22,24.02,56.19,57.58ZM97.11,192.41c7.85,2.51,16.07.2,23.66.07,38.34-.66,82.02,1.67,119.59-1.08,4.28-.31,10.77-.51,12.98-4.11,3.21-5.23.84-8.34-4.91-9.01-23.59-2.75-50.54.35-74.46-.94-15.53-.84-31.55-4.33-47.21-3.87-2.94.09-14.92,1.65-16.99,2.92l-12.67,16.02ZM211.71,214.59c1.32-1.96-1.47-6.79-4.47-6.09-13.71.92-28.7-2.56-42.29-.98-4.08.47-7.43,2.35-4.52,6.6,1.35,1.04,2.87,1.32,4.52,1.51,4.95.57,45.45.91,46.76-1.04ZM125.91,210.92c-4.79.22-10.21,2.96-13.23,6.68-15.24,18.76,12.45,39.34,29.17,23.2,12.31-11.88-.32-30.61-15.94-29.88ZM101.02,257.05c-9.06-2.73-18.55-.38-27.53-.01-4.29.18-12.33-3.85-10.59,5.43.1.55.14,1.13.47,1.6,4.52,1.93,35.77,1.09,37.65-1.18v-5.84ZM732.48,474.7c3.81-19.88,7.59-39.72,9.04-59.99,1.19-16.53,2.92-43.56,1.06-59.52-.15-1.28-.11-2.97-1.66-3.44-2.17-.65-20.52,11.85-24.22,13.87-2.21,1.2-4.42,2.6-6.9,3.2-9.74-2.84-19.5-5.75-29.11-9.03-6.94-2.37-15.78-8.3-22.88-6.84-4.27.88-23.54,14.14-28.79,17.5-10.65,6.81-35.88,26.5-46.3,29.18-10.01,2.58-22.4-2.75-32.2-4.57l-9.04,28.75,8.03-3.54c1.94,8.98-7.74,11.94-11.03,18.67l-1.03,35.77h195.03ZM84.81,422.03c1.23-1.24,1.57-5.57,1.26-7.3-1.01-5.63-12.53-4.34-13.99,1.2-1.08,4.09,9.04,9.82,12.72,6.1ZM103.85,411.37c-5.76,1.76-3.5,11.21,1.86,11.94,5.75.78,10.76-4.13,7.57-9.69-2.38-1.86-6.52-3.14-9.43-2.25ZM161.14,412.51c-4.93-3.57-15.08-.87-12.02,6.45,4.36,10.43,19.99-.69,12.02-6.45ZM201.4,413.47c-2.78-3.11-12.93-3.67-14.39,1.72-.82,13.72,21.92,6.7,14.39-1.72ZM124.4,413.35c-.76,2.74.2,8.14,2.87,9.45,9.92,4.85,11.77-16.05-2.87-9.45ZM430.89,449.49c-2.57-9.41-13.09-21.15-22.34-24.47-22.81-8.19-27.01-2.6-48.04,3.81-7.06,2.15-14.44,3.15-21.37,5.79-16.16,6.15-36.11,18.54-53.54,19.91-5.27.41-10.55-.9-15.06-.79-6.52.17-36.42,11.85-42.42,15.73-2.45,1.58-4.79,3.76-6.34,6.24l217.15-1-5.65-20.24-33.55,12.17c-.18-2.52,2.54-4.06,4.32-5.23,7.27-4.78,18.76-8.59,26.84-11.91ZM438.93,488.82l-384.47-1.02c-1.8.26-.37,10.58,3.88,9.15,62.42,1.88,124.91.02,187-.11,64.53-.13,129.07.19,193.58.05v-8.08ZM727.47,488.83c-1.16-.12-2.13-.67-3.33-.66-54.64.27-109.52,1.52-164.12.7-7.12-.11-14.02-2.17-21.56-.04v8.06c28.92,1.36,57.98,1.19,87,1.04,11.53-.06,23.51-.96,35.1-1.09,18.71-.22,44.86,2.32,62.42.09,1.1-.14,2.26.09,3.01-1.01l1.47-7.09ZM62.06,515.91c9.49.1,19.05.32,28.56.17,63.78-.98,127.88-.18,191.94-1.09,19.28-.28,38.74.66,57.91-.4,4.58-9.46-6.98-5.68-12.58-7.67H63.38s-3.23,1.51-3.23,1.51l1.9,7.47ZM390.62,507.02c-12.92.58-26.62-1.63-39.17,1.44-1.9,1.41-.79,4.21-.07,5.91l1.93,1.14,38.37-.48-1.06-8.01ZM405.25,515.03c10.16-1.4,23.19,1.04,33.68,0-.09-2.35.64-7.8-2.48-8.13-9.6-1.03-21.23.78-31.06.21l-1.21.8-.43,8.13c.37.51,1.21-.97,1.5-1.01ZM719.42,516.04l.57-8.13-64.46-.98c-15.84,2.91-32.35.06-48.17,0-22.3-.09-44.76-.21-66.96.48l-.94,8.63h179.96ZM180.55,526.13l-113.6,1.01c1.77,2.68,1.03,7.39,4.51,8.07l84.5.03,24.59-9.1ZM234.85,527.14c2.03,6.05,12.71,8.64,18.56,9.1,6.44.51,12.31-1.02,18.09-1.09,22.46-.25,44.94.27,67.4.04,4.27-.82,4.3-8.26-3-9.09-20.9-2.38-49.93.48-71.36,1.07-9.88.27-19.82-.29-29.69-.04ZM353.47,535.2h81.94c2.14-1.22,2.2-7.49.57-8.63l-78.96-.49-2.08,1.03-1.47,8.1ZM629.94,535.2c.17-5.58-.69-8.55-6.48-9.13-18.22-1.82-53.87-1.35-72.43.07-3.14.24-6.43,1.28-9.63,1.43-1.66,1.13-1.47,6.5.57,7.63h87.97ZM711.37,535.2c0-5.31,5.41-8.51-2.46-9.12-21.49-1.67-44.72,1.37-66.23,1.02-1.95.46-2.37,8.11-.17,8.11h68.87ZM198.65,546.28c-1.31-5.87-14.49-2.41-18.92-1.33-29.09,7.08-45.66,36.5-35.12,65.11,11.05,30,44.99,44.76,73.44,53.04l6.19-4.92c1.29-.07.05-1.05-.5-1.45-4.85-3.55-13.53-4.6-19.31-6.85-31.04-12.11-63.28-43.61-44.17-79.07,7.55-14.02,22.96-22.19,38.38-24.52ZM262.99,571.49c-6.76-23.06-34.69-28.18-55.63-26.05l-1.57,1.43.91,3.45c-35.39,3.11-56.94,38.09-32.14,68.03,14.06,16.97,32.97,24.51,54.25,28.27,10.27,1.81,17.77.8,27.65,1.51s21.27,4.19,31.19,5.01c19.3,1.6,52.51,2.21,71.26-1.1,3.26-.58,11.68-1.72,9.15-5.95-15.07.24-30.21,2.07-45.28,2.07-32.56,0-99.97-3.46-126.04-22.81-49.31-36.61-1.77-86.54,44.51-68.83l21.76,14.97ZM135.82,546.29h-59.82l2.62,9.13,49.09-.13c3.97-.95,7.42-3.24,9.18-6.96l-1.07-2.05ZM432.9,546.29h-161.86c-.25,3.06.12,5.97,2.51,8.07h159.35v-8.07ZM540.47,554.35h83.95c.37,0,1.45,1.55,2.53.62,2.53-1.85,1.58-8.68-.52-8.68h-84.95l-1.01,8.07ZM702.83,546.29h-60.32c-2.39,2.1-2.76,5.01-2.52,8.07l60.81,1.07c3.23-.15,4.86-8.27,2.03-9.14ZM247.91,568.46c-20.28-17.23-64.96-6.59-64.23,23.6.36,14.95,21.23,36.89,37.09,33.87-6.88-7.01-16.21-10.65-21.3-19.46-12.63-21.86,7.47-39.78,28.84-40.1l19.61,2.09ZM206.69,675.33c.08-1.39.14-2.72-.5-4.03-.98-2.01-18.73-8.58-22.64-10.56-18.47-9.38-42.93-27.95-49.18-48.47-4.76-15.65-3.8-31.43,2.92-46.33-2.12-3.21-8.5-.23-10.69,1.86-9.26,8.81-7.65,38.32-3.22,49.44,5.4,13.56,52.58,58.1,66.72,58.1h16.59ZM88.06,566.45c-.41,4.06,1.2,8.61,5.47,9.14,5.74.71,13.09-.51,19.03-.2l3.6-8.36c-.82-3.42-9.94-.62-12.47-.54-5.19.17-10.44-.21-15.63-.04ZM429.88,566.45h-145.27c-.62,0-1.52.79-2.5,0v8.08s136.26.04,136.26.04l9.37-1.19,2.14-6.93ZM542.48,566.45c.39,5.29-3.61,7.59,3.47,8.11,12.95.97,60.99,1.53,71.37-2.12,4.77-1.68,2.21-3.73-1.38-4.55-1.34-.31-7.76-1.44-8.61-1.44h-64.84ZM633.97,569.48c-.28,2.43,1.68,3.3,3.54,4,8.14,3.05,17.97,1.07,26.07,1,6.73-.06,18.24,1.13,24.17.04,3.66-.67,5.35-7.56,1-8.06l-54.78,3.03ZM234.18,602.4c-11.64-11.57,5.48-24.43,20.01-18.55,2.61,1.06,5.12,4.7,8.18,3.7,5.62-8.46-2.63-6.84-6.4-8.51-1.5-.66-3.32-3.77-5.98-5.09-12.24-6.05-37.36-4.74-44.94,8.49-9.96,17.36,9.22,29.89,18.82,40.98.79.92-.29,2.11.48,2.58,1.64.99,9,3.16,11.28,3.69,42.15,9.8,97.3,9.36,140.46,5.31,5.84-.55,16.05-1.29,17.6-8.05-16.25,1.05-32.47.62-48.8.96-31.3.66-104.62,7.97-125.54-19.2-8.24-10.7-7.3-26.48,7.18-29.93.98-.23,3.55-.99,3.28.77-10.44,3.78-13.03,14.46-6.86,23.53,12.73,18.7,60.08,12.86,79.71,12.73,25.25-.16,50.28-.2,75.4-1.01,5.29-.17,25.47,1.11,28.26-.89,1.2-.86,4.38-6.52.96-6.13-30.85.17-61.71-.2-92.56-.04-22.67.12-46.51,2.65-69.06-.14-2.55-.32-9.66-3.38-11.49-5.2ZM109.18,586.61l-8.11,1.59c-.62,4.24,4.3,12.34,8.11,14.54v-16.13ZM283.1,594.68h133.21c3,0,7.59-9.64.05-8.11-43.68.74-87.54-1.35-131.08,1.23l-2.18,6.89ZM564.09,587.62c-6.47-.95-14.9.7-21.61,0,.65,3.88-1.19,6.59,3.47,7.11,5.67.64,18.56.98,20.65-5.61-.24-.48-2.3-1.47-2.5-1.5ZM322.31,663.25c-6.7-2.04-13.33-.03-20.1.49,3.66,4,16.8,4.08,20.1-.49Z"/>
  <path d="M454.01,405.65c-3.97-33.56-33.6-41.13-56.19-57.58-11.18-8.14-20.5-18.42-30.98-27.41-30.64.81-57.74-6.6-85.74-17.86-20.8-8.37-19.83-11.02-44.79-10.61-28.69.47-57.62,1.57-86.47,1.1-14.49-.24-35.59.47-49.21-1.06-4.5-.5-9.78-2.68-7.06-8.08,2.47-4.9,25.34-2.68,31.23-2.97,14.96-.73,30.29-1.08,45.19-2.07,18.38-1.22,32.77-8.22,50.42-10.94,18.07-2.78,35.91-1.31,53.14-3.16,10.18-1.09,15.64-8.61,2.78-11.87-27.6-2.08-57.89,2.49-85.08-1.39-5.09-.73-15.77-1.76-17.22-7.8-1.22-5.06,5.45-5.77,9.04-6.16,11.63-1.26,23.58-.14,35.17-1.03,13.53-1.03,27.65-4.02,41.24-5.02,19.02-1.4,38.34-.06,57.29-2.03,3.93-.41,27.67-3.21,26.61-8.46-3.45-4.14-12.22-4.36-17.51-4.68-9.99-.6-56.85,2.49-61.38-4.98-3.32-5.47,3.96-7.6,8.05-8.09,20.7-2.48,44.17-1.53,65.34-3.03,7.02-.5,14.1-2.47,21.08-3.05,6.45-.53,13.49.57,20.02-.08,3.09-.31,24.33-4.59,20.73-9.95-13.3-2.01-27.22-.8-40.75-.98-17.9-.24-39.93.75-57.25-1.06-4.46-.47-18.97-2.09-20.11-6.92s4.46-5.83,8.03-6.18c32.53-3.21,75.99,1.71,106.53-8.1,3.15-1.01,5.31-3.48,8.14-3.93,13.72-2.21,32.25,1.13,47.09-1.17,13.91-2.15,10.43-8.86-1.92-9.96-18.47-1.64-87.52,3.77-98.35-3.19-1.03-.66-2.07-1.29-2.52-2.51-.22-1.16,1.37-3.74,2.32-4.45,4.71-3.53,29.99-2.49,37.24-2.98,47.65-3.25,91.97-5.57,139.47,2.31,4.65.77,18.5,3.38,20.43,7.82,3.3,7.59-19.29,5.52-19.64,12.06,2.2.19,4.26.91,6.49,1.06,18.4,1.23,36.93-2.52,55.37-1.09,3.18.25,18.3,2.59,17.48,7.45-10.01,11.14-27.51,6.17-40.12,11.25l-.55,2.53c2.09,1.59,4.53,1.8,7.03,2.03,16.28,1.48,71.85-3.41,82.52,7.98.74.79,1.49,1.42,1.52,2.62.2,1.24-.35,2.08-.99,3.04-5.41,8.15-35.5,6.38-45.5,8.81-13.65,3.33.85,6.63,6.86,7.62,13.48,2.21,28.09,1.37,41.81,3.44,3.53.53,20.16,3.61,20.8,7.42-3.32,8.81-16.4,9.97-24.71,11.3-20.18,3.23-35.85.69-55.14,1.1-8.36.18-11.89,6.55-18.27,10.98-27.27,18.94-59.29,19.8-69,56.82-.33,1.26-1.69,6.75-1.69,7.38v75.61c0,4.53,6.99,2.1,8.55-.5.4,3.86-3.6,8.67-5.39,12.74-3.89,8.82-7.18,17.83-8.9,27.37-2.33,12.96-3.73,28.82-.8,41.54,1.41-1.04,1.93-1.94,2.45-3.59,2.45-7.76,2.67-19.37,4.38-27.86,4.93-24.38,10.09-44.5,19.28-67.37,4.97-12.38,10.72-25.99,13.31-39.08.84-4.24,1.3-17.01,2.79-19.38,1.12-1.78,3.6-.51,4.59.75,7.16,9.1-2.31,37.94-5.07,48.67,26.82-9.88,54.56-20.33,74.38-41.85l-15.03-9.1c-6.83-2.04-19.21,2.46-23.16-5.99,5.13-4.34,11.84-2.57,17.08.49l-2.13-10.96c-11.81-1.05-31.03.76-40.59-7.17-9.34-7.74,4.95-11.12,11.2-11.99,6.73-.93,36.97-.48,39.58-3.17,1.81-1.86-6.13-3.67-6.92-6.74-.68-2.64,2.46-4.52,4.64-5.11,5.42-1.49,18.8-2.04,24.92-2.23,11.81-.36,28.48.26,40.09,2.12,2.83.45,8.55,1.73,8.64,5.41.07,2.81-4.25,5.48-4,8.58,8.49-1.33,39.98-3.05,43.78,6.09.66,1.6-1.04,4.65-2.11,5.98-6.02,7.47-21.04,6.6-29.6,7.61-4.02,3.59-6.25,9.41-10.03,13.13-11.82,11.65-31.55,14.31-47.28,16.1-17.32,26.36-45.16,33.28-70.05,47.71-26.93,15.61-35.45,54.34-36.57,83.3-1.48,38.37.36,81.58,2.1,119.98.27,6-.41,12.06.09,18.06.93,11.15,5.39,21.86,6.91,32.9,9.91-2.13,20.37-5.4,30.53-3.11,2.73-.8,1.93-13.91,11.42-15.88,7.01-1.45,12.27,6,18.36,6.89-.15-13.39,6.58-21.5,19.88-22.9,6.19-.65,19.3.56,25.14,2.46,5.49,1.78,8.95,4.48,11.97,9.42,8.36-1.76,17.4-11.09,26.44-5.62-29.38,40.74-66.11,76.5-109.89,101.5-47.28,27-100.13,44.65-154.95,47.26-5.13.24-24.34.94-28-.02-1.12-.29-1.07-2.63-2.27-2.93-1.82-.46-6.78,2.5-9.05,2.84-11.19,1.66-27.31-2.23-38.64-3.46,10.21-8.4,23.91-12.35,35.67-18.67,75.36-40.47,119.12-119.8,133.93-202.42.53-2.97,2.97-12.42-1.23-13.31-1.78-.37-2,1.37-2.48,2.54-6.95,16.92-10.54,41-17.09,59.48-27.15,76.51-79.47,133.94-154.16,166-1.71.73-6.45,3.1-7.59,3.3-1.75.31-30.85-6.37-33.8-7.52-1.19-.46-2.88-.78-2.51-2.5.85-4.03,36.71-14.37,42.74-16.63,85.86-32.21,117.63-77.67,149.04-161.05,18.35-48.72,18.49-97.39,17.33-148.98-.31-3.26-3.53-2.55-6.03-2.53-2.31,20.2-.19,40.73-.96,61.04-.9,23.7-5.87,51.37-12.36,74.31-.49,1.75-1.38,4.15-3.76,3.78l4.06-46.83c-2.38-56.78,6-114.34-5.3-170.19-1.22-6.04-13.75-14.81-19.2-18.05-6.55-3.89-13.98-6.01-20.66-9.53-9.25-4.87-21.33-13.3-30.61-16.69-3.29-1.2-6.02-2.4-9.73-1.83,1.61,1.83,2.81,4.35,4.48,6.08,5.13,5.28,14.63,14.63,20.17,19.09,17.05,13.75,29.89,16.65,42.73,37.8,20.95,34.5,4.9,102.95,10.07,143.23-1.92,33.78-2.35,67.61-14.1,99.79-28.23,77.35-86.48,109.5-160.91,134.03-6.82,2.25-21.75,7.34-28.16,6.14-13.68-2.57-47.94-21.61-61.29-29.26-.92-.53-6.54-3.03-5.01-4.55,8.68-2.54,17.18-2.13,26.14-2.02.04-3.58-.86-8.8,2.61-10.99,8.28-5.22,18.13,6.07,19.5,4.93-6.33-16.21,14.94-23.95,18.11-6.05,3.17-2.42,1.41-6.62,6.5-7.14,6.05-.62,8.41,3.48,7.57,9.16,2.76.34,3.51-3.15,5.73-3.82,10.13-3.06,9.33,9.22,11.94,9.8,16.75-3.86,33.97-4.32,50.88-8.3,77.93-18.35,106.36-98.6,107.42-171.54.45-30.76-6.07-60.93-30.73-81.17-34.78-28.54-72.65-5.96-111.73-5.45-15.17.2-30.05-2.95-45.02-4.61-15.5-1.72-35.27-1.45-49.5-9.93-4.55-2.72-3.31-3.93-2.38-8.64l-1.44-1.63h-41.22c-.89,0-7.55-.96-8.83-1.23-4.49-.92-5.21-6.68-2.08-7.7l71.74-1.16c-5.47-7.19-13.77-10.42-22.58-11.12-36.81-2.91-83.25,6.25-118.22-.41-7.29-1.39-15.43-6.52-6.02-12.2,22.57-2.68,48.66,2.07,70.81-.57,4.64-.55,8.34-2.21,11.22-5.97.86-5.59-6.78-7.83-11.22-7.93-28.45-.65-66.91,4.57-94.31.82-6.39-.88-11.2-3.69-9.51-10.87,2.13-3.32,39.22-1.97,45.65-2.1,26.14-.54,52.15-.73,78.42-.08,7.46.18,16.57,1.83,24.09,1.86,1.47,0,2.98-.92,4.52-.81.33-1.64-.42-2.09-1.64-2.89-3.57-2.34-12.39-2.52-17.02-4.1-5.17-1.77-9.56-4.86-4.83-10.01,36.62-1.06,73.48-.35,108.95,9.42,4.19,1.15,15.47,3.11,11.54,9.59-1.35,2.24-12.39,5.15-9.55,8.06,4.32-.73,8.44,1.09,12.56,1.09,18.46,0,33.41-2.16,52.01,3.23,8.38,2.43,16.32,5.97,5.51,13.02-14.68,9.57-37.7,7.53-54.48,7.88l-8.55,1.99c8.69,2.37,16.62,7.83,25.17,10.56,19.74,6.31,41.37,5.56,61.62,8.78,27.28,4.33,51.64,16.65,67.02,40.16-.5-5.94.69-12.85,0-18.65ZM501.26,188.4c-1.45-1.86-21.84-3.91-25.59-4.09-5.62-.27-14.83-.6-20.2,0-5.24.58-4.12,3.74.28,4.85,5.18,1.32,16.18,2.03,21.84,2.29,5.12.23,16.66.77,21.15-.05,1.73-.32,2.82-1.06,2.52-3ZM517.34,233.76c-8.89.35-17.71.81-26.63,1.01-4.79.1-9.31-.08-14.04-.05-11.91.07-23.83.03-35.73.05-.5,2.35.29,1.62,1.29,2.26,21.68,13.87,27.92,18.38,38.09,43.44,8.92,21.98,2.4,46.43,8.33,69.27.62,2.39.75,4.44,3.06,5.99,1.83-1.21,1.42-2.67,1.55-4.47,1.68-22.33-.66-46.55.92-68.64,1.38-19.26,10.44-34.99,23.16-48.85ZM576.66,234.76h-19.6c-4.74,0-17.31,3.23-21.89,5.26-13.28,5.88-25.6,22.22-24.84,37.08,6.64-6.17,12.31-12.76,20.18-17.56,14.92-9.11,34.51-11.14,46.17-24.78ZM436.92,237.79c.08-.65-1.33-2.02-1.51-2.02h-15.08c-.18,0-1.58,1.36-1.51,2.02h18.1ZM469.08,293.23c-2.46-11.67-8.83-32.8-22.61-34.28-13.76-1.48-30.6.37-44.74-.99l23.1,15.64,44.25,19.63ZM394.69,293.23c-4.95-7.31-10.49-14.45-18.84-17.89-11.07-4.56-28.22-7.6-39.46-2.76,18.59,9.03,37.49,18.04,58.3,20.65ZM279.08,289.2c.24,3.26,6.27,5.34,9.06,6.54,17.34,7.39,49.26,16.33,67.84,15.73,1.83-.06,3.32.14,4.51-1.6-5.99-5.16-14.64-16.8-22.27-18.98-1.78-.51-9.77-1.69-11.39-1.69h-47.75ZM636.98,292.23h-26.14c-.93,6.51,11.11,17.4,17.08,14.62,1.86-.87,10.09-13.69,9.06-14.62ZM674.18,292.24c-8.11-.64-15.36,2.14-23.4.13l-12.79,16.99c13.63,1.01,30.01-4.04,36.19-17.12ZM452.99,364.82c-4.47-20.46-16.85-40.24-34.87-51.22-16.94-10.32-37.25-11.61-55.59-18.35-.45,1.74.69,2.02,1.49,3.03,12.01,15.27,30.45,32.62,47.09,42.51,13.85,8.23,29.43,13.6,41.89,24.02ZM279.58,365.82c-11.98-2-29.16,1.49-41.72,0-.44,1.76.73,2.02,1.5,3.03,21.47,28.11,66.25,36.96,99.04,27.73l13.05-4.54-59.3-7.08,12.05-5.53c-6.39-3.19-18.04-12.51-24.63-13.61ZM259.98,399.08c-10.97-9.97-22.45-13.79-37.19-11.07.39,4.47,6.58,5.42,10.05,6.54,8.43,2.73,18.3,4.65,27.14,4.53ZM510.3,602.75c-4.4-1.21-5.04,2.46-6.51,6.06-2.97,7.24-3.99,15.42-6.52,22.7-10.38,29.91-26,54.93-43.26,81.11,2.4,2.13,14.29-10.56,16.06-12.62,22.16-25.82,36.45-63.6,40.24-97.25ZM490.19,606.78l-4.01.51c-8.46,13.81-13.97,29.2-22.32,43.15-19.41,32.4-37.2,47.29-64.16,71.76-2.08,1.89-13.67,12.54-12.04,14.63,27.23-11.19,48.96-33.86,66.16-57.15,15.91-21.55,30.78-46.47,36.37-72.9Z"/>
  <path class="cls-1" d="M481.8,49.65c7.7,2.01,16.52,7.02,23.74,9.02,2.17.6,4.14-.58,6.14.74,7.39,4.9-4.42,5.7-7.92,5.97-55.66,4.22-116.76-1.76-172.95.98l-57.77,3.08c-2.33,1.85,15.31,4.7,16.72,4.9,3.63.51,26.47,3.48,27.84,3.15.85-.2.12-1.8,2.15-2.05,2.67-.32,7.25,1.05,10.06,1.08,60.26.62,121,1.5,180.96.93,13.91-.13,27.85.18,41.75.05l-4.01,2.99c2.97,2.1,4.32,2.11,8.03,2.54-5.96,6.65-15.55,4.11-23.61,4.55-78.43,4.33-157.74-.53-236.01,3.27l-9.8,3.77c10.16.66,20.48,2.45,30.62,3.08,77.61,4.81,160.24,2,238.27.92,5.33-.07,28.85-.95,31.22,3.05s-1.17,4.82-4.33,5.77c-17.99,5.46-48.41,3.2-68.01,3.35-78.33.58-156.51-.26-234.26.01-34.3.12-67.54.81-101.58,5l-2.51,3.01c2.99.09,5.73,1.46,8.64,1.92,19.47,3.11,38.64,4.6,58.21,1.54l79.54,4.43c3.95,3.54,4.16,7.68-2.11,8.25-35.87,3.26-73.66-.85-109.66,1.01-5.8.3-20.52,3.57-7.9,7.99,4.98,1.74,25.43,2.68,32.11,3.09,24.36,1.49,53.17-1.53,76.29,1.13,3.21.37,10.83,1.6,9.65,5.92-.96,1.42-18.36,2.93-21.57,3.08-20.03.97-40.44-1.63-60.32,1.01-34.61-3.05-75.85,3.91-109.67,0-6.35-.73-2.49-5,.04-8.12,39.69-49.05,122.81-93.76,184.28-105.55,51.43-9.86,117.1-8.07,167.74,5.13Z"/>
  <path d="M732.48,474.7h-195.03s1.03-35.76,1.03-35.76c3.3-6.73,12.97-9.69,11.03-18.67l-8.03,3.54,9.04-28.75c9.79,1.82,22.19,7.15,32.2,4.57,10.42-2.68,35.65-22.38,46.3-29.18,5.25-3.36,24.52-16.62,28.79-17.5,7.1-1.46,15.94,4.47,22.88,6.84,9.6,3.28,19.37,6.19,29.11,9.03,2.49-.6,4.69-1.99,6.9-3.2,3.71-2.02,22.05-14.52,24.22-13.87,1.55.46,1.51,2.15,1.66,3.44,1.86,15.96.12,42.99-1.06,59.52-1.45,20.27-5.24,40.11-9.04,59.99ZM659.1,361.8c-1.7-.35-2.66.83-3.91,1.61-16.79,10.43-58.98,39.25-70.48,53.32-.93,1.14-2.44,1.62-2,3.53,1.24,1.1,10.07-2.75,12.03-3.56,16.1-6.68,33.27-15.13,47.79-24.67,7.28-8.76,10.99-20.28,16.59-30.24ZM557.56,469.68c-2.33,3.4,12.58-.28,13.87-.73,19.57-6.87,40.29-25.3,57.18-37.43,14.33-10.29,13.95-8.8,25.5-22.82,2.34-2.84,19.11-21.11,17.05-23.72-17.44,8.26-29.42,23.08-43.75,35.26-21.67,18.42-45.64,34.64-69.85,49.44ZM678.19,421.28c-.79-.88-11.21,7.04-12.53,8.09-11.25,8.91-24.92,21.04-35.73,30.71-1.15,1.03-10.18,9.52-9.03,10.6,2.83-.16,5.83-.94,8.37-2.18,4.08-1.97,30.6-20.37,33.88-23.49,3.31-3.15,11-15.23,13.57-19.66.77-1.32,2.02-1.99,1.46-4.07Z"/>
  <path d="M430.89,449.49c-8.08,3.32-19.57,7.13-26.84,11.91-1.78,1.17-4.5,2.71-4.32,5.23l33.55-12.17,5.65,20.24-217.15,1c1.54-2.48,3.89-4.66,6.34-6.24,6-3.87,35.9-15.55,42.42-15.73,4.51-.12,9.79,1.2,15.06.79,17.43-1.37,37.38-13.76,53.54-19.91,6.94-2.64,14.31-3.64,21.37-5.79,21.02-6.4,25.23-12,48.04-3.81,9.25,3.32,19.77,15.06,22.34,24.47ZM384.63,428.34c-1.48-1.43-18.38,8.04-21.57,9.11-7.18,2.4-12.76,1.79-20.32,4.83-7.63,3.06-34.92,16.78-40.83,21.3-.58.45-1.92,2.92-1.73,3.06,17.47,2.07,34.28-14.88,49.26-17.72,4.69-.89,8.41.41,14.07-1.93,2.62-1.08,24.37-15.5,21.11-18.64ZM398.71,443.47c-2.96-3.2-22.44,7.29-26.15,9.55-3.19,1.94-8.43,4.16-8.02,8.58,1.21,1.32,29.17-13.64,32.17-15.65,1.15-.77,2.6.26,2-2.48Z"/>
  <path d="M234.18,602.4c1.83,1.82,8.94,4.88,11.49,5.2,22.54,2.8,46.39.26,69.06.14,30.85-.16,61.71.21,92.56.04,3.43-.39.24,5.27-.96,6.13-2.8,2-22.98.72-28.26.89-25.13.81-50.15.84-75.4,1.01-19.63.13-66.99,5.97-79.71-12.73-6.17-9.07-3.58-19.75,6.86-23.53.27-1.76-2.3-1-3.28-.77-14.48,3.46-15.42,19.23-7.18,29.93,20.92,27.17,94.24,19.86,125.54,19.2,16.33-.34,32.55.09,48.8-.96-1.55,6.76-11.77,7.5-17.6,8.05-43.16,4.05-98.31,4.49-140.46-5.31-2.28-.53-9.65-2.7-11.28-3.69-.77-.47.31-1.66-.48-2.58-9.6-11.09-28.77-23.62-18.82-40.98,7.59-13.23,32.7-14.54,44.94-8.49,2.66,1.32,4.49,4.43,5.98,5.09,3.77,1.67,12.01.06,6.4,8.51-3.06,1-5.57-2.64-8.18-3.7-14.53-5.88-31.65,6.98-20.01,18.55Z"/>
  <path d="M438.93,488.82v8.08c-64.51.14-129.06-.18-193.58-.05-62.09.12-124.58,1.99-187,.11-4.26,1.43-5.68-8.89-3.88-9.15l384.47,1.02Z"/>
  <path d="M262.99,571.49l-21.76-14.97c-46.28-17.71-93.82,32.23-44.51,68.83,26.07,19.36,93.48,22.81,126.04,22.81,15.07,0,30.21-1.83,45.28-2.07,2.53,4.22-5.89,5.37-9.15,5.95-18.75,3.31-51.96,2.7-71.26,1.1-9.93-.82-20.84-4.26-31.19-5.01s-17.38.3-27.65-1.51c-21.27-3.76-40.19-11.3-54.25-28.27-24.81-29.94-3.25-64.92,32.14-68.03l-.91-3.45,1.57-1.43c20.94-2.13,48.87,2.99,55.63,26.05Z"/>
  <path d="M62.06,515.91l-1.9-7.47,3.23-1.52h264.49c5.6,1.99,17.16-1.78,12.58,7.67-19.16,1.06-38.63.13-57.91.4-64.06.92-128.15.12-191.94,1.09-9.51.15-19.07-.08-28.56-.17Z"/>
  <path class="cls-1" d="M97.11,192.41l12.67-16.02c2.07-1.27,14.05-2.83,16.99-2.92,15.66-.46,31.68,3.03,47.21,3.87,23.92,1.29,50.87-1.8,74.46.94,5.75.67,8.12,3.77,4.91,9.01-2.21,3.6-8.7,3.8-12.98,4.11-37.57,2.74-81.25.41-119.59,1.08-7.59.13-15.81,2.44-23.66-.07Z"/>
  <path d="M198.65,546.28c-15.43,2.33-30.83,10.5-38.38,24.52-19.11,35.46,13.13,66.96,44.17,79.07,5.78,2.26,14.46,3.3,19.31,6.85.55.4,1.79,1.39.5,1.45l-6.19,4.92c-28.45-8.28-62.39-23.04-73.44-53.04-10.54-28.61,6.03-58.03,35.12-65.11,4.43-1.08,17.61-4.54,18.92,1.33Z"/>
  <path d="M727.47,488.83l-1.47,7.09c-.75,1.11-1.91.88-3.01,1.01-17.56,2.22-43.71-.31-62.42-.09-11.59.14-23.57,1.03-35.1,1.09-29.01.14-58.07.32-87.01-1.04v-8.06c7.55-2.13,14.45-.07,21.57.04,54.59.82,109.47-.43,164.12-.7,1.2,0,2.17.54,3.33.66Z"/>
  <path d="M719.42,516.04h-179.96l.94-8.63c22.2-.69,44.67-.57,66.96-.48,15.82.06,32.34,2.91,48.17,0l64.46.98-.57,8.13Z"/>
  <path d="M206.69,675.33h-16.59c-14.15,0-61.32-44.55-66.72-58.1-4.43-11.12-6.04-40.62,3.22-49.44,2.19-2.09,8.57-5.07,10.69-1.86-6.72,14.9-7.69,30.67-2.92,46.33,6.25,20.52,30.71,39.09,49.18,48.47,3.91,1.98,21.66,8.55,22.64,10.56.64,1.31.59,2.64.5,4.03Z"/>
  <path d="M432.9,546.29v8.07h-159.35c-2.39-2.1-2.76-5.01-2.51-8.07h161.86Z"/>
  <path d="M429.88,566.45l-2.14,6.93-9.37,1.19-136.28-.04v-8.08c1,.8,1.9,0,2.52,0h145.27Z"/>
  <path d="M283.1,594.68l2.18-6.89c43.54-2.58,87.4-.48,131.08-1.23,7.54-1.53,2.95,8.11-.05,8.11h-133.21Z"/>
  <path d="M125.91,210.92c15.61-.73,28.24,18,15.94,29.88-16.72,16.14-44.4-4.44-29.17-23.2,3.02-3.72,8.45-6.45,13.23-6.68Z"/>
  <path d="M247.91,568.46l-19.61-2.09c-21.37.33-41.47,18.24-28.84,40.1,5.09,8.81,14.42,12.45,21.3,19.46-15.86,3.02-36.73-18.91-37.09-33.87-.72-30.18,43.96-40.83,64.23-23.6Z"/>
  <path d="M234.85,527.14c9.87-.25,19.82.31,29.69.04,21.43-.59,50.46-3.45,71.36-1.07,7.3.83,7.27,8.27,3,9.09-22.46.23-44.94-.29-67.4-.04-5.78.06-11.65,1.6-18.09,1.09-5.85-.47-16.53-3.05-18.56-9.1Z"/>
  <path d="M180.55,526.13l-24.59,9.1-84.5-.03c-3.48-.67-2.74-5.39-4.51-8.07l113.6-1.01Z"/>
  <path d="M629.94,535.2h-87.97c-2.04-1.13-2.22-6.5-.57-7.63,3.2-.15,6.48-1.19,9.63-1.43,18.57-1.42,54.21-1.89,72.43-.07,5.78.58,6.65,3.55,6.48,9.13Z"/>
  <path d="M353.47,535.2l1.47-8.1,2.08-1.03,78.96.49c1.63,1.14,1.57,7.41-.57,8.63h-81.94Z"/>
  <path d="M540.47,554.35l1.01-8.07h84.95c2.1,0,3.06,6.83.52,8.68-1.09.93-2.16-.62-2.53-.62h-83.95Z"/>
  <path d="M711.37,535.2h-68.87c-2.2,0-1.78-7.65.17-8.11,21.52.36,44.75-2.69,66.23-1.02,7.87.61,2.46,3.81,2.46,9.12Z"/>
  <path d="M542.48,566.45h64.84c.85,0,7.27,1.13,8.61,1.44,3.59.82,6.15,2.88,1.38,4.55-10.39,3.65-58.42,3.09-71.37,2.12-7.08-.53-3.08-2.83-3.47-8.11Z"/>
  <path d="M135.82,546.29l1.07,2.05c-1.76,3.71-5.21,6-9.18,6.96l-49.09.13-2.62-9.13h59.82Z"/>
  <path d="M702.83,546.29c2.83.87,1.2,8.99-2.03,9.14l-60.81-1.07c-.25-3.06.13-5.97,2.52-8.07h60.32Z"/>
  <path d="M633.97,569.48l54.78-3.03c4.35.51,2.65,7.4-1,8.06-5.93,1.08-17.44-.11-24.17-.04-8.09.08-17.93,2.06-26.07-1-1.86-.7-3.83-1.57-3.54-4Z"/>
  <path class="cls-1" d="M211.71,214.59c-1.31,1.94-41.81,1.6-46.76,1.04-1.65-.19-3.17-.46-4.52-1.51-2.9-4.25.44-6.12,4.52-6.6,13.59-1.58,28.58,1.9,42.29.98,3-.71,5.79,4.13,4.47,6.09Z"/>
  <path d="M390.62,507.02l1.06,8.01-38.37.48-1.93-1.14c-.72-1.69-1.83-4.5.07-5.91,12.55-3.07,26.25-.87,39.17-1.44Z"/>
  <path class="cls-1" d="M101.02,257.05v5.84c-1.87,2.27-33.13,3.11-37.65,1.18-.33-.47-.37-1.05-.47-1.6-1.74-9.28,6.3-5.25,10.59-5.43,8.98-.37,18.47-2.72,27.53.01Z"/>
  <path d="M405.25,515.03c-.29.04-1.13,1.52-1.5,1.01l.43-8.13,1.21-.8c9.84.57,21.46-1.24,31.06-.21,3.11.33,2.39,5.79,2.48,8.13-10.49,1.04-23.52-1.4-33.68,0Z"/>
  <path d="M88.06,566.45c5.19-.17,10.44.21,15.63.04,2.53-.08,11.65-2.88,12.47.54l-3.6,8.36c-5.94-.31-13.29.91-19.03.2-4.27-.53-5.88-5.07-5.47-9.14Z"/>
  <path d="M564.09,587.62c.2.03,2.26,1.02,2.5,1.5-2.09,6.59-14.98,6.25-20.65,5.61-4.66-.53-2.82-3.23-3.47-7.11,6.71.7,15.14-.95,21.61,0Z"/>
  <path d="M109.18,586.61v16.13c-3.81-2.2-8.73-10.29-8.11-14.54l8.11-1.59Z"/>
  <path d="M322.31,663.25c-3.3,4.57-16.44,4.49-20.1.49,6.77-.52,13.4-2.52,20.1-.49Z"/>
  <path class="cls-2" d="M517.34,233.76c-12.72,13.85-21.78,29.58-23.16,48.85-1.58,22.09.75,46.31-.92,68.64-.14,1.8.28,3.26-1.55,4.47-2.3-1.55-2.43-3.59-3.06-5.99-5.93-22.84.58-47.29-8.33-69.27-10.16-25.06-16.4-29.57-38.09-43.44-1-.64-1.8.1-1.29-2.26,11.9-.02,23.82.02,35.73-.05,4.73-.03,9.25.16,14.04.05,8.92-.19,17.74-.66,26.63-1.01Z"/>
  <path class="cls-2" d="M452.99,364.82c-12.45-10.42-28.03-15.79-41.89-24.02-16.64-9.89-35.08-27.24-47.09-42.51-.8-1.01-1.94-1.29-1.49-3.03,18.34,6.73,38.65,8.03,55.59,18.35,18.02,10.98,30.41,30.75,34.87,51.22Z"/>
  <path class="cls-2" d="M279.58,365.82c6.58,1.1,18.23,10.42,24.63,13.61l-12.05,5.53,59.3,7.08-13.05,4.54c-32.79,9.23-77.58.38-99.04-27.73-.78-1.02-1.94-1.27-1.5-3.03,12.56,1.49,29.75-2,41.72,0Z"/>
  <path class="cls-2" d="M490.19,606.78c-5.59,26.44-20.46,51.35-36.37,72.9-17.2,23.29-38.92,45.96-66.16,57.15-1.63-2.09,9.96-12.75,12.04-14.63,26.96-24.46,44.75-39.36,64.16-71.76,8.35-13.94,13.86-29.34,22.32-43.15l4.01-.51Z"/>
  <path class="cls-2" d="M469.08,293.23l-44.25-19.63-23.1-15.64c14.13,1.37,30.98-.48,44.74.99,13.78,1.48,20.16,22.6,22.61,34.28Z"/>
  <path class="cls-2" d="M279.08,289.2h47.75c1.62,0,9.61,1.18,11.39,1.69,7.63,2.18,16.28,13.82,22.27,18.98-1.18,1.74-2.67,1.54-4.51,1.6-18.58.6-50.5-8.34-67.84-15.73-2.8-1.19-8.82-3.27-9.06-6.54Z"/>
  <path class="cls-2" d="M510.3,602.75c-3.79,33.65-18.08,71.43-40.24,97.25-1.77,2.06-13.65,14.75-16.06,12.62,17.26-26.18,32.88-51.2,43.26-81.11,2.52-7.27,3.54-15.46,6.52-22.7,1.48-3.6,2.12-7.27,6.51-6.06Z"/>
  <path class="cls-2" d="M576.66,234.76c-11.65,13.64-31.24,15.67-46.17,24.78-7.87,4.8-13.53,11.39-20.18,17.56-.76-14.86,11.56-31.2,24.84-37.08,4.59-2.03,17.16-5.26,21.89-5.26h19.6Z"/>
  <path class="cls-2" d="M394.69,293.23c-20.81-2.61-39.72-11.63-58.3-20.65,11.25-4.85,28.4-1.81,39.46,2.76,8.35,3.44,13.89,10.58,18.84,17.89Z"/>
  <path class="cls-2" d="M674.18,292.24c-6.18,13.08-22.56,18.13-36.19,17.12l12.79-16.99c8.03,2,15.29-.78,23.4-.13Z"/>
  <path class="cls-2" d="M636.98,292.23c1.03.93-7.2,13.75-9.06,14.62-5.97,2.78-18.01-8.11-17.08-14.62h26.14Z"/>
  <path class="cls-2" d="M501.26,188.4c.3,1.94-.79,2.69-2.52,3-4.49.82-16.02.28-21.15.05-5.66-.26-16.67-.97-21.84-2.29-4.4-1.12-5.52-4.27-.28-4.85,5.36-.6,14.58-.27,20.2,0,3.75.18,24.14,2.23,25.59,4.09Z"/>
  <path class="cls-2" d="M259.98,399.08c-8.84.12-18.71-1.8-27.14-4.53-3.47-1.13-9.66-2.07-10.05-6.54,14.75-2.71,26.22,1.11,37.19,11.07Z"/>
  <path class="cls-2" d="M436.92,237.79h-18.1c-.08-.65,1.33-2.02,1.51-2.02h15.08c.18,0,1.58,1.36,1.51,2.02Z"/>
  <path class="cls-2" d="M557.56,469.68c24.21-14.81,48.18-31.02,69.85-49.44,14.33-12.18,26.3-27,43.75-35.26,2.06,2.61-14.71,20.88-17.05,23.72-11.55,14.03-11.17,12.53-25.5,22.82-16.89,12.13-37.61,30.56-57.18,37.43-1.28.45-16.2,4.13-13.87.73Z"/>
  <path class="cls-2" d="M659.1,361.8c-5.59,9.95-9.3,21.47-16.59,30.24-14.52,9.53-31.69,17.98-47.79,24.67-1.95.81-10.79,4.66-12.03,3.56-.44-1.9,1.07-2.39,2-3.53,11.51-14.08,53.7-42.89,70.48-53.32,1.25-.78,2.21-1.96,3.91-1.61Z"/>
  <path class="cls-2" d="M678.19,421.28c.56,2.08-.7,2.75-1.46,4.07-2.57,4.42-10.26,16.51-13.57,19.66-3.28,3.12-29.81,21.52-33.88,23.49-2.55,1.23-5.55,2.01-8.37,2.18-1.16-1.08,7.88-9.57,9.03-10.6,10.81-9.67,24.48-21.79,35.73-30.71,1.32-1.05,11.74-8.97,12.53-8.09Z"/>
  <path class="cls-2" d="M384.63,428.34c3.26,3.14-18.49,17.56-21.11,18.64-5.66,2.33-9.38,1.03-14.07,1.93-14.98,2.85-31.79,19.79-49.26,17.72-.19-.14,1.14-2.61,1.73-3.06,5.91-4.52,33.2-18.24,40.83-21.3,7.56-3.03,13.14-2.42,20.32-4.83,3.2-1.07,20.09-10.54,21.57-9.11Z"/>
  <path class="cls-2" d="M398.71,443.47c.6,2.73-.85,1.71-2,2.48-3.01,2.01-30.96,16.97-32.17,15.65-.41-4.42,4.83-6.65,8.02-8.58,3.71-2.25,23.19-12.75,26.15-9.55Z"/>
</svg>